<svg width="18" height="22" viewBox="0 0 18 22" fill="none" xmlns="http://www.w3.org/2000/svg">
<g clip-path="url(#clip0)">
<path d="M7.15001 0H6.60001V0.55H7.15001V0Z" fill="#0F022E"/>
<path d="M7.69999 0H7.14999V0.55H7.69999V0Z" fill="#0F022E"/>
<path d="M8.25 0H7.7V0.55H8.25V0Z" fill="#0F022E"/>
<path d="M8.8 0H8.25V0.55H8.8V0Z" fill="#0F022E"/>
<path d="M9.35 0H8.8V0.55H9.35V0Z" fill="#0F022E"/>
<path d="M9.90001 0H9.35001V0.55H9.90001V0Z" fill="#0F022E"/>
<path d="M10.45 0H9.89999V0.55H10.45V0Z" fill="#0F022E"/>
<path d="M11 0H10.45V0.55H11V0Z" fill="#0F022E"/>
<path d="M7.15001 0.549988H6.60001V1.09999H7.15001V0.549988Z" fill="#0F022E"/>
<path d="M7.69999 0.549988H7.14999V1.09999H7.69999V0.549988Z" fill="#0F022E"/>
<path d="M8.25 0.549988H7.7V1.09999H8.25V0.549988Z" fill="#0F022E"/>
<path d="M8.8 0.549988H8.25V1.09999H8.8V0.549988Z" fill="#0F022E"/>
<path d="M9.35 0.549988H8.8V1.09999H9.35V0.549988Z" fill="#0F022E"/>
<path d="M9.90001 0.549988H9.35001V1.09999H9.90001V0.549988Z" fill="#0F022E"/>
<path d="M10.45 0.549988H9.89999V1.09999H10.45V0.549988Z" fill="#0F022E"/>
<path d="M11 0.549988H10.45V1.09999H11V0.549988Z" fill="#0F022E"/>
<path d="M7.15001 1.09998H6.60001V1.64998H7.15001V1.09998Z" fill="#0F022E"/>
<path d="M7.69999 1.09998H7.14999V1.64998H7.69999V1.09998Z" fill="#0F022E"/>
<path d="M8.25 1.09998H7.7V1.64998H8.25V1.09998Z" fill="#0F022E"/>
<path d="M8.8 1.09998H8.25V1.64998H8.8V1.09998Z" fill="#0F022E"/>
<path d="M9.35 1.09998H8.8V1.64998H9.35V1.09998Z" fill="#0F022E"/>
<path d="M9.90001 1.09998H9.35001V1.64998H9.90001V1.09998Z" fill="#0F022E"/>
<path d="M10.45 1.09998H9.89999V1.64998H10.45V1.09998Z" fill="#0F022E"/>
<path d="M11 1.09998H10.45V1.64998H11V1.09998Z" fill="#0F022E"/>
<path d="M7.15001 1.65002H6.60001V2.20002H7.15001V1.65002Z" fill="#0F022E"/>
<path d="M7.69999 1.65002H7.14999V2.20002H7.69999V1.65002Z" fill="#0F022E"/>
<path d="M8.25 1.65002H7.7V2.20002H8.25V1.65002Z" fill="#0F022E"/>
<path d="M8.8 1.65002H8.25V2.20002H8.8V1.65002Z" fill="#0F022E"/>
<path d="M9.35 1.65002H8.8V2.20002H9.35V1.65002Z" fill="#0F022E"/>
<path d="M9.90001 1.65002H9.35001V2.20002H9.90001V1.65002Z" fill="#0F022E"/>
<path d="M10.45 1.65002H9.89999V2.20002H10.45V1.65002Z" fill="#0F022E"/>
<path d="M11 1.65002H10.45V2.20002H11V1.65002Z" fill="#0F022E"/>
<path d="M4.94999 2.20001H4.39999V2.75001H4.94999V2.20001Z" fill="#0F022E"/>
<path d="M5.5 2.20001H4.95V2.75001H5.5V2.20001Z" fill="#0F022E"/>
<path d="M6.05 2.20001H5.5V2.75001H6.05V2.20001Z" fill="#0F022E"/>
<path d="M6.6 2.20001H6.05V2.75001H6.6V2.20001Z" fill="#0F022E"/>
<path d="M7.15001 2.20001H6.60001V2.75001H7.15001V2.20001Z" fill="#FAFFFF"/>
<path d="M7.69999 2.20001H7.14999V2.75001H7.69999V2.20001Z" fill="#FAFFFF"/>
<path d="M8.25 2.20001H7.7V2.75001H8.25V2.20001Z" fill="#FAFFFF"/>
<path d="M8.8 2.20001H8.25V2.75001H8.8V2.20001Z" fill="#FAFFFF"/>
<path d="M9.35 2.20001H8.8V2.75001H9.35V2.20001Z" fill="#FAFFFF"/>
<path d="M9.90001 2.20001H9.35001V2.75001H9.90001V2.20001Z" fill="#FAFFFF"/>
<path d="M10.45 2.20001H9.89999V2.75001H10.45V2.20001Z" fill="#FAFFFF"/>
<path d="M11 2.20001H10.45V2.75001H11V2.20001Z" fill="#FAFFFF"/>
<path d="M11.55 2.20001H11V2.75001H11.55V2.20001Z" fill="#0F022E"/>
<path d="M12.1 2.20001H11.55V2.75001H12.1V2.20001Z" fill="#0F022E"/>
<path d="M12.65 2.20001H12.1V2.75001H12.65V2.20001Z" fill="#0F022E"/>
<path d="M13.2 2.20001H12.65V2.75001H13.2V2.20001Z" fill="#0F022E"/>
<path d="M4.94999 2.75H4.39999V3.3H4.94999V2.75Z" fill="#0F022E"/>
<path d="M5.5 2.75H4.95V3.3H5.5V2.75Z" fill="#0F022E"/>
<path d="M6.05 2.75H5.5V3.3H6.05V2.75Z" fill="#0F022E"/>
<path d="M6.6 2.75H6.05V3.3H6.6V2.75Z" fill="#0F022E"/>
<path d="M7.15001 2.75H6.60001V3.3H7.15001V2.75Z" fill="#FAFFFF"/>
<path d="M7.69999 2.75H7.14999V3.3H7.69999V2.75Z" fill="#FAFFFF"/>
<path d="M8.25 2.75H7.7V3.3H8.25V2.75Z" fill="#FAFFFF"/>
<path d="M8.8 2.75H8.25V3.3H8.8V2.75Z" fill="#FAFFFF"/>
<path d="M9.35 2.75H8.8V3.3H9.35V2.75Z" fill="#FAFFFF"/>
<path d="M9.90001 2.75H9.35001V3.3H9.90001V2.75Z" fill="#FAFFFF"/>
<path d="M10.45 2.75H9.89999V3.3H10.45V2.75Z" fill="#FAFFFF"/>
<path d="M11 2.75H10.45V3.3H11V2.75Z" fill="#FAFFFF"/>
<path d="M11.55 2.75H11V3.3H11.55V2.75Z" fill="#0F022E"/>
<path d="M12.1 2.75H11.55V3.3H12.1V2.75Z" fill="#0F022E"/>
<path d="M12.65 2.75H12.1V3.3H12.65V2.75Z" fill="#0F022E"/>
<path d="M13.2 2.75H12.65V3.3H13.2V2.75Z" fill="#0F022E"/>
<path d="M4.94999 3.29999H4.39999V3.84999H4.94999V3.29999Z" fill="#0F022E"/>
<path d="M5.5 3.29999H4.95V3.84999H5.5V3.29999Z" fill="#0F022E"/>
<path d="M6.05 3.29999H5.5V3.84999H6.05V3.29999Z" fill="#0F022E"/>
<path d="M6.6 3.29999H6.05V3.84999H6.6V3.29999Z" fill="#0F022E"/>
<path d="M7.15001 3.29999H6.60001V3.84999H7.15001V3.29999Z" fill="#FAFFFF"/>
<path d="M7.69999 3.29999H7.14999V3.84999H7.69999V3.29999Z" fill="#FAFFFF"/>
<path d="M8.25 3.29999H7.7V3.84999H8.25V3.29999Z" fill="#FAFFFF"/>
<path d="M8.8 3.29999H8.25V3.84999H8.8V3.29999Z" fill="#FAFFFF"/>
<path d="M9.35 3.29999H8.8V3.84999H9.35V3.29999Z" fill="#FAFFFF"/>
<path d="M9.90001 3.29999H9.35001V3.84999H9.90001V3.29999Z" fill="#FAFFFF"/>
<path d="M10.45 3.29999H9.89999V3.84999H10.45V3.29999Z" fill="#FAFFFF"/>
<path d="M11 3.29999H10.45V3.84999H11V3.29999Z" fill="#FAFFFF"/>
<path d="M11.55 3.29999H11V3.84999H11.55V3.29999Z" fill="#0F022E"/>
<path d="M12.1 3.29999H11.55V3.84999H12.1V3.29999Z" fill="#0F022E"/>
<path d="M12.65 3.29999H12.1V3.84999H12.65V3.29999Z" fill="#0F022E"/>
<path d="M13.2 3.29999H12.65V3.84999H13.2V3.29999Z" fill="#0F022E"/>
<path d="M4.94999 3.84998H4.39999V4.39998H4.94999V3.84998Z" fill="#0F022E"/>
<path d="M5.5 3.84998H4.95V4.39998H5.5V3.84998Z" fill="#0F022E"/>
<path d="M6.05 3.84998H5.5V4.39998H6.05V3.84998Z" fill="#0F022E"/>
<path d="M6.6 3.84998H6.05V4.39998H6.6V3.84998Z" fill="#0F022E"/>
<path d="M7.15001 3.84998H6.60001V4.39998H7.15001V3.84998Z" fill="#FAFFFF"/>
<path d="M7.69999 3.84998H7.14999V4.39998H7.69999V3.84998Z" fill="#FAFFFF"/>
<path d="M8.25 3.84998H7.7V4.39998H8.25V3.84998Z" fill="#FAFFFF"/>
<path d="M8.8 3.84998H8.25V4.39998H8.8V3.84998Z" fill="#FAFFFF"/>
<path d="M9.35 3.84998H8.8V4.39998H9.35V3.84998Z" fill="#FAFFFF"/>
<path d="M9.90001 3.84998H9.35001V4.39998H9.90001V3.84998Z" fill="#FAFFFF"/>
<path d="M10.45 3.84998H9.89999V4.39998H10.45V3.84998Z" fill="#FAFFFF"/>
<path d="M11 3.84998H10.45V4.39998H11V3.84998Z" fill="#FAFFFF"/>
<path d="M11.55 3.84998H11V4.39998H11.55V3.84998Z" fill="#0F022E"/>
<path d="M12.1 3.84998H11.55V4.39998H12.1V3.84998Z" fill="#0F022E"/>
<path d="M12.65 3.84998H12.1V4.39998H12.65V3.84998Z" fill="#0F022E"/>
<path d="M13.2 3.84998H12.65V4.39998H13.2V3.84998Z" fill="#0F022E"/>
<path d="M2.75 4.40002H2.2V4.95002H2.75V4.40002Z" fill="#0F022E"/>
<path d="M3.3 4.40002H2.75V4.95002H3.3V4.40002Z" fill="#0F022E"/>
<path d="M3.85 4.40002H3.3V4.95002H3.85V4.40002Z" fill="#0F022E"/>
<path d="M4.40001 4.40002H3.85001V4.95002H4.40001V4.40002Z" fill="#0F022E"/>
<path d="M4.94999 4.40002H4.39999V4.95002H4.94999V4.40002Z" fill="#FAFFFF"/>
<path d="M5.5 4.40002H4.95V4.95002H5.5V4.40002Z" fill="#FAFFFF"/>
<path d="M6.05 4.40002H5.5V4.95002H6.05V4.40002Z" fill="#FAFFFF"/>
<path d="M6.6 4.40002H6.05V4.95002H6.6V4.40002Z" fill="#FAFFFF"/>
<path d="M7.15001 4.40002H6.60001V4.95002H7.15001V4.40002Z" fill="#7A399D"/>
<path d="M7.69999 4.40002H7.14999V4.95002H7.69999V4.40002Z" fill="#7A399D"/>
<path d="M8.25 4.40002H7.7V4.95002H8.25V4.40002Z" fill="#7A399D"/>
<path d="M8.8 4.40002H8.25V4.95002H8.8V4.40002Z" fill="#7A399D"/>
<path d="M9.35 4.40002H8.8V4.95002H9.35V4.40002Z" fill="#7A399D"/>
<path d="M9.90001 4.40002H9.35001V4.95002H9.90001V4.40002Z" fill="#7A399D"/>
<path d="M10.45 4.40002H9.89999V4.95002H10.45V4.40002Z" fill="#7A399D"/>
<path d="M11 4.40002H10.45V4.95002H11V4.40002Z" fill="#7A399D"/>
<path d="M11.55 4.40002H11V4.95002H11.55V4.40002Z" fill="#FAFFFF"/>
<path d="M12.1 4.40002H11.55V4.95002H12.1V4.40002Z" fill="#FAFFFF"/>
<path d="M12.65 4.40002H12.1V4.95002H12.65V4.40002Z" fill="#FAFFFF"/>
<path d="M13.2 4.40002H12.65V4.95002H13.2V4.40002Z" fill="#FAFFFF"/>
<path d="M13.75 4.40002H13.2V4.95002H13.75V4.40002Z" fill="#0F022E"/>
<path d="M14.3 4.40002H13.75V4.95002H14.3V4.40002Z" fill="#0F022E"/>
<path d="M14.85 4.40002H14.3V4.95002H14.85V4.40002Z" fill="#0F022E"/>
<path d="M15.4 4.40002H14.85V4.95002H15.4V4.40002Z" fill="#0F022E"/>
<path d="M2.75 4.95001H2.2V5.50001H2.75V4.95001Z" fill="#0F022E"/>
<path d="M3.3 4.95001H2.75V5.50001H3.3V4.95001Z" fill="#0F022E"/>
<path d="M3.85 4.95001H3.3V5.50001H3.85V4.95001Z" fill="#0F022E"/>
<path d="M4.40001 4.95001H3.85001V5.50001H4.40001V4.95001Z" fill="#0F022E"/>
<path d="M4.94999 4.95001H4.39999V5.50001H4.94999V4.95001Z" fill="#FAFFFF"/>
<path d="M5.5 4.95001H4.95V5.50001H5.5V4.95001Z" fill="#FAFFFF"/>
<path d="M6.05 4.95001H5.5V5.50001H6.05V4.95001Z" fill="#FAFFFF"/>
<path d="M6.6 4.95001H6.05V5.50001H6.6V4.95001Z" fill="#FAFFFF"/>
<path d="M7.15001 4.95001H6.60001V5.50001H7.15001V4.95001Z" fill="#7A399D"/>
<path d="M7.69999 4.95001H7.14999V5.50001H7.69999V4.95001Z" fill="#7A399D"/>
<path d="M8.25 4.95001H7.7V5.50001H8.25V4.95001Z" fill="#7A399D"/>
<path d="M8.8 4.95001H8.25V5.50001H8.8V4.95001Z" fill="#7A399D"/>
<path d="M9.35 4.95001H8.8V5.50001H9.35V4.95001Z" fill="#7A399D"/>
<path d="M9.90001 4.95001H9.35001V5.50001H9.90001V4.95001Z" fill="#7A399D"/>
<path d="M10.45 4.95001H9.89999V5.50001H10.45V4.95001Z" fill="#7A399D"/>
<path d="M11 4.95001H10.45V5.50001H11V4.95001Z" fill="#7A399D"/>
<path d="M11.55 4.95001H11V5.50001H11.55V4.95001Z" fill="#FAFFFF"/>
<path d="M12.1 4.95001H11.55V5.50001H12.1V4.95001Z" fill="#FAFFFF"/>
<path d="M12.65 4.95001H12.1V5.50001H12.65V4.95001Z" fill="#FAFFFF"/>
<path d="M13.2 4.95001H12.65V5.50001H13.2V4.95001Z" fill="#FAFFFF"/>
<path d="M13.75 4.95001H13.2V5.50001H13.75V4.95001Z" fill="#0F022E"/>
<path d="M14.3 4.95001H13.75V5.50001H14.3V4.95001Z" fill="#0F022E"/>
<path d="M14.85 4.95001H14.3V5.50001H14.85V4.95001Z" fill="#0F022E"/>
<path d="M15.4 4.95001H14.85V5.50001H15.4V4.95001Z" fill="#0F022E"/>
<path d="M2.75 5.5H2.2V6.05H2.75V5.5Z" fill="#0F022E"/>
<path d="M3.3 5.5H2.75V6.05H3.3V5.5Z" fill="#0F022E"/>
<path d="M3.85 5.5H3.3V6.05H3.85V5.5Z" fill="#0F022E"/>
<path d="M4.40001 5.5H3.85001V6.05H4.40001V5.5Z" fill="#0F022E"/>
<path d="M4.94999 5.5H4.39999V6.05H4.94999V5.5Z" fill="#FAFFFF"/>
<path d="M5.5 5.5H4.95V6.05H5.5V5.5Z" fill="#FAFFFF"/>
<path d="M6.05 5.5H5.5V6.05H6.05V5.5Z" fill="#FAFFFF"/>
<path d="M6.6 5.5H6.05V6.05H6.6V5.5Z" fill="#FAFFFF"/>
<path d="M7.15001 5.5H6.60001V6.05H7.15001V5.5Z" fill="#7A399D"/>
<path d="M7.69999 5.5H7.14999V6.05H7.69999V5.5Z" fill="#7A399D"/>
<path d="M8.25 5.5H7.7V6.05H8.25V5.5Z" fill="#7A399D"/>
<path d="M8.8 5.5H8.25V6.05H8.8V5.5Z" fill="#7A399D"/>
<path d="M9.35 5.5H8.8V6.05H9.35V5.5Z" fill="#7A399D"/>
<path d="M9.90001 5.5H9.35001V6.05H9.90001V5.5Z" fill="#7A399D"/>
<path d="M10.45 5.5H9.89999V6.05H10.45V5.5Z" fill="#7A399D"/>
<path d="M11 5.5H10.45V6.05H11V5.5Z" fill="#7A399D"/>
<path d="M11.55 5.5H11V6.05H11.55V5.5Z" fill="#FAFFFF"/>
<path d="M12.1 5.5H11.55V6.05H12.1V5.5Z" fill="#FAFFFF"/>
<path d="M12.65 5.5H12.1V6.05H12.65V5.5Z" fill="#FAFFFF"/>
<path d="M13.2 5.5H12.65V6.05H13.2V5.5Z" fill="#FAFFFF"/>
<path d="M13.75 5.5H13.2V6.05H13.75V5.5Z" fill="#0F022E"/>
<path d="M14.3 5.5H13.75V6.05H14.3V5.5Z" fill="#0F022E"/>
<path d="M14.85 5.5H14.3V6.05H14.85V5.5Z" fill="#0F022E"/>
<path d="M15.4 5.5H14.85V6.05H15.4V5.5Z" fill="#0F022E"/>
<path d="M2.75 6.04999H2.2V6.59999H2.75V6.04999Z" fill="#0F022E"/>
<path d="M3.3 6.04999H2.75V6.59999H3.3V6.04999Z" fill="#0F022E"/>
<path d="M3.85 6.04999H3.3V6.59999H3.85V6.04999Z" fill="#0F022E"/>
<path d="M4.40001 6.04999H3.85001V6.59999H4.40001V6.04999Z" fill="#0F022E"/>
<path d="M4.94999 6.04999H4.39999V6.59999H4.94999V6.04999Z" fill="#FAFFFF"/>
<path d="M5.5 6.04999H4.95V6.59999H5.5V6.04999Z" fill="#FAFFFF"/>
<path d="M6.05 6.04999H5.5V6.59999H6.05V6.04999Z" fill="#FAFFFF"/>
<path d="M6.6 6.04999H6.05V6.59999H6.6V6.04999Z" fill="#FAFFFF"/>
<path d="M7.15001 6.04999H6.60001V6.59999H7.15001V6.04999Z" fill="#7A399D"/>
<path d="M7.69999 6.04999H7.14999V6.59999H7.69999V6.04999Z" fill="#7A399D"/>
<path d="M8.25 6.04999H7.7V6.59999H8.25V6.04999Z" fill="#7A399D"/>
<path d="M8.8 6.04999H8.25V6.59999H8.8V6.04999Z" fill="#7A399D"/>
<path d="M9.35 6.04999H8.8V6.59999H9.35V6.04999Z" fill="#7A399D"/>
<path d="M9.90001 6.04999H9.35001V6.59999H9.90001V6.04999Z" fill="#7A399D"/>
<path d="M10.45 6.04999H9.89999V6.59999H10.45V6.04999Z" fill="#7A399D"/>
<path d="M11 6.04999H10.45V6.59999H11V6.04999Z" fill="#7A399D"/>
<path d="M11.55 6.04999H11V6.59999H11.55V6.04999Z" fill="#FAFFFF"/>
<path d="M12.1 6.04999H11.55V6.59999H12.1V6.04999Z" fill="#FAFFFF"/>
<path d="M12.65 6.04999H12.1V6.59999H12.65V6.04999Z" fill="#FAFFFF"/>
<path d="M13.2 6.04999H12.65V6.59999H13.2V6.04999Z" fill="#FAFFFF"/>
<path d="M13.75 6.04999H13.2V6.59999H13.75V6.04999Z" fill="#0F022E"/>
<path d="M14.3 6.04999H13.75V6.59999H14.3V6.04999Z" fill="#0F022E"/>
<path d="M14.85 6.04999H14.3V6.59999H14.85V6.04999Z" fill="#0F022E"/>
<path d="M15.4 6.04999H14.85V6.59999H15.4V6.04999Z" fill="#0F022E"/>
<path d="M2.75 6.59998H2.2V7.14997H2.75V6.59998Z" fill="#0F022E"/>
<path d="M3.3 6.59998H2.75V7.14997H3.3V6.59998Z" fill="#0F022E"/>
<path d="M3.85 6.59998H3.3V7.14997H3.85V6.59998Z" fill="#0F022E"/>
<path d="M4.40001 6.59998H3.85001V7.14997H4.40001V6.59998Z" fill="#0F022E"/>
<path d="M4.94999 6.59998H4.39999V7.14997H4.94999V6.59998Z" fill="#FAFFFF"/>
<path d="M5.5 6.59998H4.95V7.14997H5.5V6.59998Z" fill="#FAFFFF"/>
<path d="M6.05 6.59998H5.5V7.14997H6.05V6.59998Z" fill="#FAFFFF"/>
<path d="M6.6 6.59998H6.05V7.14997H6.6V6.59998Z" fill="#FAFFFF"/>
<path d="M7.15001 6.59998H6.60001V7.14997H7.15001V6.59998Z" fill="#7A399D"/>
<path d="M7.69999 6.59998H7.14999V7.14997H7.69999V6.59998Z" fill="#7A399D"/>
<path d="M8.25 6.59998H7.7V7.14997H8.25V6.59998Z" fill="#7A399D"/>
<path d="M8.8 6.59998H8.25V7.14997H8.8V6.59998Z" fill="#7A399D"/>
<path d="M9.35 6.59998H8.8V7.14997H9.35V6.59998Z" fill="#7A399D"/>
<path d="M9.90001 6.59998H9.35001V7.14997H9.90001V6.59998Z" fill="#7A399D"/>
<path d="M10.45 6.59998H9.89999V7.14997H10.45V6.59998Z" fill="#7A399D"/>
<path d="M11 6.59998H10.45V7.14997H11V6.59998Z" fill="#7A399D"/>
<path d="M11.55 6.59998H11V7.14997H11.55V6.59998Z" fill="#FAFFFF"/>
<path d="M12.1 6.59998H11.55V7.14997H12.1V6.59998Z" fill="#FAFFFF"/>
<path d="M12.65 6.59998H12.1V7.14997H12.65V6.59998Z" fill="#FAFFFF"/>
<path d="M13.2 6.59998H12.65V7.14997H13.2V6.59998Z" fill="#FAFFFF"/>
<path d="M13.75 6.59998H13.2V7.14997H13.75V6.59998Z" fill="#0F022E"/>
<path d="M14.3 6.59998H13.75V7.14997H14.3V6.59998Z" fill="#0F022E"/>
<path d="M14.85 6.59998H14.3V7.14997H14.85V6.59998Z" fill="#0F022E"/>
<path d="M15.4 6.59998H14.85V7.14997H15.4V6.59998Z" fill="#0F022E"/>
<path d="M2.75 7.15002H2.2V7.70003H2.75V7.15002Z" fill="#0F022E"/>
<path d="M3.3 7.15002H2.75V7.70003H3.3V7.15002Z" fill="#0F022E"/>
<path d="M3.85 7.15002H3.3V7.70003H3.85V7.15002Z" fill="#0F022E"/>
<path d="M4.40001 7.15002H3.85001V7.70003H4.40001V7.15002Z" fill="#0F022E"/>
<path d="M4.94999 7.15002H4.39999V7.70003H4.94999V7.15002Z" fill="#FAFFFF"/>
<path d="M5.5 7.15002H4.95V7.70003H5.5V7.15002Z" fill="#FAFFFF"/>
<path d="M6.05 7.15002H5.5V7.70003H6.05V7.15002Z" fill="#FAFFFF"/>
<path d="M6.6 7.15002H6.05V7.70003H6.6V7.15002Z" fill="#FAFFFF"/>
<path d="M7.15001 7.15002H6.60001V7.70003H7.15001V7.15002Z" fill="#7A399D"/>
<path d="M7.69999 7.15002H7.14999V7.70003H7.69999V7.15002Z" fill="#7A399D"/>
<path d="M8.25 7.15002H7.7V7.70003H8.25V7.15002Z" fill="#7A399D"/>
<path d="M8.8 7.15002H8.25V7.70003H8.8V7.15002Z" fill="#7A399D"/>
<path d="M9.35 7.15002H8.8V7.70003H9.35V7.15002Z" fill="#7A399D"/>
<path d="M9.90001 7.15002H9.35001V7.70003H9.90001V7.15002Z" fill="#7A399D"/>
<path d="M10.45 7.15002H9.89999V7.70003H10.45V7.15002Z" fill="#7A399D"/>
<path d="M11 7.15002H10.45V7.70003H11V7.15002Z" fill="#7A399D"/>
<path d="M11.55 7.15002H11V7.70003H11.55V7.15002Z" fill="#FAFFFF"/>
<path d="M12.1 7.15002H11.55V7.70003H12.1V7.15002Z" fill="#FAFFFF"/>
<path d="M12.65 7.15002H12.1V7.70003H12.65V7.15002Z" fill="#FAFFFF"/>
<path d="M13.2 7.15002H12.65V7.70003H13.2V7.15002Z" fill="#FAFFFF"/>
<path d="M13.75 7.15002H13.2V7.70003H13.75V7.15002Z" fill="#0F022E"/>
<path d="M14.3 7.15002H13.75V7.70003H14.3V7.15002Z" fill="#0F022E"/>
<path d="M14.85 7.15002H14.3V7.70003H14.85V7.15002Z" fill="#0F022E"/>
<path d="M15.4 7.15002H14.85V7.70003H15.4V7.15002Z" fill="#0F022E"/>
<path d="M2.75 7.70001H2.2V8.25001H2.75V7.70001Z" fill="#0F022E"/>
<path d="M3.3 7.70001H2.75V8.25001H3.3V7.70001Z" fill="#0F022E"/>
<path d="M3.85 7.70001H3.3V8.25001H3.85V7.70001Z" fill="#0F022E"/>
<path d="M4.40001 7.70001H3.85001V8.25001H4.40001V7.70001Z" fill="#0F022E"/>
<path d="M4.94999 7.70001H4.39999V8.25001H4.94999V7.70001Z" fill="#FAFFFF"/>
<path d="M5.5 7.70001H4.95V8.25001H5.5V7.70001Z" fill="#FAFFFF"/>
<path d="M6.05 7.70001H5.5V8.25001H6.05V7.70001Z" fill="#FAFFFF"/>
<path d="M6.6 7.70001H6.05V8.25001H6.6V7.70001Z" fill="#FAFFFF"/>
<path d="M7.15001 7.70001H6.60001V8.25001H7.15001V7.70001Z" fill="#7A399D"/>
<path d="M7.69999 7.70001H7.14999V8.25001H7.69999V7.70001Z" fill="#7A399D"/>
<path d="M8.25 7.70001H7.7V8.25001H8.25V7.70001Z" fill="#7A399D"/>
<path d="M8.8 7.70001H8.25V8.25001H8.8V7.70001Z" fill="#7A399D"/>
<path d="M9.35 7.70001H8.8V8.25001H9.35V7.70001Z" fill="#7A399D"/>
<path d="M9.90001 7.70001H9.35001V8.25001H9.90001V7.70001Z" fill="#7A399D"/>
<path d="M10.45 7.70001H9.89999V8.25001H10.45V7.70001Z" fill="#7A399D"/>
<path d="M11 7.70001H10.45V8.25001H11V7.70001Z" fill="#7A399D"/>
<path d="M11.55 7.70001H11V8.25001H11.55V7.70001Z" fill="#FAFFFF"/>
<path d="M12.1 7.70001H11.55V8.25001H12.1V7.70001Z" fill="#FAFFFF"/>
<path d="M12.65 7.70001H12.1V8.25001H12.65V7.70001Z" fill="#FAFFFF"/>
<path d="M13.2 7.70001H12.65V8.25001H13.2V7.70001Z" fill="#FAFFFF"/>
<path d="M13.75 7.70001H13.2V8.25001H13.75V7.70001Z" fill="#0F022E"/>
<path d="M14.3 7.70001H13.75V8.25001H14.3V7.70001Z" fill="#0F022E"/>
<path d="M14.85 7.70001H14.3V8.25001H14.85V7.70001Z" fill="#0F022E"/>
<path d="M15.4 7.70001H14.85V8.25001H15.4V7.70001Z" fill="#0F022E"/>
<path d="M2.75 8.25H2.2V8.8H2.75V8.25Z" fill="#0F022E"/>
<path d="M3.3 8.25H2.75V8.8H3.3V8.25Z" fill="#0F022E"/>
<path d="M3.85 8.25H3.3V8.8H3.85V8.25Z" fill="#0F022E"/>
<path d="M4.40001 8.25H3.85001V8.8H4.40001V8.25Z" fill="#0F022E"/>
<path d="M4.94999 8.25H4.39999V8.8H4.94999V8.25Z" fill="#FAFFFF"/>
<path d="M5.5 8.25H4.95V8.8H5.5V8.25Z" fill="#FAFFFF"/>
<path d="M6.05 8.25H5.5V8.8H6.05V8.25Z" fill="#FAFFFF"/>
<path d="M6.6 8.25H6.05V8.8H6.6V8.25Z" fill="#FAFFFF"/>
<path d="M7.15001 8.25H6.60001V8.8H7.15001V8.25Z" fill="#7A399D"/>
<path d="M7.69999 8.25H7.14999V8.8H7.69999V8.25Z" fill="#7A399D"/>
<path d="M8.25 8.25H7.7V8.8H8.25V8.25Z" fill="#7A399D"/>
<path d="M8.8 8.25H8.25V8.8H8.8V8.25Z" fill="#7A399D"/>
<path d="M9.35 8.25H8.8V8.8H9.35V8.25Z" fill="#7A399D"/>
<path d="M9.90001 8.25H9.35001V8.8H9.90001V8.25Z" fill="#7A399D"/>
<path d="M10.45 8.25H9.89999V8.8H10.45V8.25Z" fill="#7A399D"/>
<path d="M11 8.25H10.45V8.8H11V8.25Z" fill="#7A399D"/>
<path d="M11.55 8.25H11V8.8H11.55V8.25Z" fill="#FAFFFF"/>
<path d="M12.1 8.25H11.55V8.8H12.1V8.25Z" fill="#FAFFFF"/>
<path d="M12.65 8.25H12.1V8.8H12.65V8.25Z" fill="#FAFFFF"/>
<path d="M13.2 8.25H12.65V8.8H13.2V8.25Z" fill="#FAFFFF"/>
<path d="M13.75 8.25H13.2V8.8H13.75V8.25Z" fill="#0F022E"/>
<path d="M14.3 8.25H13.75V8.8H14.3V8.25Z" fill="#0F022E"/>
<path d="M14.85 8.25H14.3V8.8H14.85V8.25Z" fill="#0F022E"/>
<path d="M15.4 8.25H14.85V8.8H15.4V8.25Z" fill="#0F022E"/>
<path d="M0.55 8.79999H0V9.34999H0.55V8.79999Z" fill="#0F022E"/>
<path d="M1.1 8.79999H0.550003V9.34999H1.1V8.79999Z" fill="#0F022E"/>
<path d="M1.65001 8.79999H1.10001V9.34999H1.65001V8.79999Z" fill="#0F022E"/>
<path d="M2.19999 8.79999H1.64999V9.34999H2.19999V8.79999Z" fill="#0F022E"/>
<path d="M2.75 8.79999H2.2V9.34999H2.75V8.79999Z" fill="#FAFFFF"/>
<path d="M3.3 8.79999H2.75V9.34999H3.3V8.79999Z" fill="#FAFFFF"/>
<path d="M3.85 8.79999H3.3V9.34999H3.85V8.79999Z" fill="#FAFFFF"/>
<path d="M4.40001 8.79999H3.85001V9.34999H4.40001V8.79999Z" fill="#FAFFFF"/>
<path d="M4.94999 8.79999H4.39999V9.34999H4.94999V8.79999Z" fill="#FAFFFF"/>
<path d="M5.5 8.79999H4.95V9.34999H5.5V8.79999Z" fill="#FAFFFF"/>
<path d="M6.05 8.79999H5.5V9.34999H6.05V8.79999Z" fill="#FAFFFF"/>
<path d="M6.6 8.79999H6.05V9.34999H6.6V8.79999Z" fill="#FAFFFF"/>
<path d="M7.15001 8.79999H6.60001V9.34999H7.15001V8.79999Z" fill="#FAFFFF"/>
<path d="M7.69999 8.79999H7.14999V9.34999H7.69999V8.79999Z" fill="#FAFFFF"/>
<path d="M8.25 8.79999H7.7V9.34999H8.25V8.79999Z" fill="#FAFFFF"/>
<path d="M8.8 8.79999H8.25V9.34999H8.8V8.79999Z" fill="#FAFFFF"/>
<path d="M9.35 8.79999H8.8V9.34999H9.35V8.79999Z" fill="#FAFFFF"/>
<path d="M9.90001 8.79999H9.35001V9.34999H9.90001V8.79999Z" fill="#FAFFFF"/>
<path d="M10.45 8.79999H9.89999V9.34999H10.45V8.79999Z" fill="#FAFFFF"/>
<path d="M11 8.79999H10.45V9.34999H11V8.79999Z" fill="#FAFFFF"/>
<path d="M11.55 8.79999H11V9.34999H11.55V8.79999Z" fill="#FAFFFF"/>
<path d="M12.1 8.79999H11.55V9.34999H12.1V8.79999Z" fill="#FAFFFF"/>
<path d="M12.65 8.79999H12.1V9.34999H12.65V8.79999Z" fill="#FAFFFF"/>
<path d="M13.2 8.79999H12.65V9.34999H13.2V8.79999Z" fill="#FAFFFF"/>
<path d="M13.75 8.79999H13.2V9.34999H13.75V8.79999Z" fill="#FAFFFF"/>
<path d="M14.3 8.79999H13.75V9.34999H14.3V8.79999Z" fill="#FAFFFF"/>
<path d="M14.85 8.79999H14.3V9.34999H14.85V8.79999Z" fill="#FAFFFF"/>
<path d="M15.4 8.79999H14.85V9.34999H15.4V8.79999Z" fill="#FAFFFF"/>
<path d="M15.95 8.79999H15.4V9.34999H15.95V8.79999Z" fill="#0F022E"/>
<path d="M16.5 8.79999H15.95V9.34999H16.5V8.79999Z" fill="#0F022E"/>
<path d="M17.05 8.79999H16.5V9.34999H17.05V8.79999Z" fill="#0F022E"/>
<path d="M17.6 8.79999H17.05V9.34999H17.6V8.79999Z" fill="#0F022E"/>
<path d="M0.55 9.34998H0V9.89997H0.55V9.34998Z" fill="#0F022E"/>
<path d="M1.1 9.34998H0.550003V9.89997H1.1V9.34998Z" fill="#0F022E"/>
<path d="M1.65001 9.34998H1.10001V9.89997H1.65001V9.34998Z" fill="#0F022E"/>
<path d="M2.19999 9.34998H1.64999V9.89997H2.19999V9.34998Z" fill="#0F022E"/>
<path d="M2.75 9.34998H2.2V9.89997H2.75V9.34998Z" fill="#FAFFFF"/>
<path d="M3.3 9.34998H2.75V9.89997H3.3V9.34998Z" fill="#FAFFFF"/>
<path d="M3.85 9.34998H3.3V9.89997H3.85V9.34998Z" fill="#FAFFFF"/>
<path d="M4.40001 9.34998H3.85001V9.89997H4.40001V9.34998Z" fill="#FAFFFF"/>
<path d="M4.94999 9.34998H4.39999V9.89997H4.94999V9.34998Z" fill="#FAFFFF"/>
<path d="M5.5 9.34998H4.95V9.89997H5.5V9.34998Z" fill="#FAFFFF"/>
<path d="M6.05 9.34998H5.5V9.89997H6.05V9.34998Z" fill="#FAFFFF"/>
<path d="M6.6 9.34998H6.05V9.89997H6.6V9.34998Z" fill="#FAFFFF"/>
<path d="M7.15001 9.34998H6.60001V9.89997H7.15001V9.34998Z" fill="#FAFFFF"/>
<path d="M7.69999 9.34998H7.14999V9.89997H7.69999V9.34998Z" fill="#FAFFFF"/>
<path d="M8.25 9.34998H7.7V9.89997H8.25V9.34998Z" fill="#FAFFFF"/>
<path d="M8.8 9.34998H8.25V9.89997H8.8V9.34998Z" fill="#FAFFFF"/>
<path d="M9.35 9.34998H8.8V9.89997H9.35V9.34998Z" fill="#FAFFFF"/>
<path d="M9.90001 9.34998H9.35001V9.89997H9.90001V9.34998Z" fill="#FAFFFF"/>
<path d="M10.45 9.34998H9.89999V9.89997H10.45V9.34998Z" fill="#FAFFFF"/>
<path d="M11 9.34998H10.45V9.89997H11V9.34998Z" fill="#FAFFFF"/>
<path d="M11.55 9.34998H11V9.89997H11.55V9.34998Z" fill="#FAFFFF"/>
<path d="M12.1 9.34998H11.55V9.89997H12.1V9.34998Z" fill="#FAFFFF"/>
<path d="M12.65 9.34998H12.1V9.89997H12.65V9.34998Z" fill="#FAFFFF"/>
<path d="M13.2 9.34998H12.65V9.89997H13.2V9.34998Z" fill="#FAFFFF"/>
<path d="M13.75 9.34998H13.2V9.89997H13.75V9.34998Z" fill="#FAFFFF"/>
<path d="M14.3 9.34998H13.75V9.89997H14.3V9.34998Z" fill="#FAFFFF"/>
<path d="M14.85 9.34998H14.3V9.89997H14.85V9.34998Z" fill="#FAFFFF"/>
<path d="M15.4 9.34998H14.85V9.89997H15.4V9.34998Z" fill="#FAFFFF"/>
<path d="M15.95 9.34998H15.4V9.89997H15.95V9.34998Z" fill="#0F022E"/>
<path d="M16.5 9.34998H15.95V9.89997H16.5V9.34998Z" fill="#0F022E"/>
<path d="M17.05 9.34998H16.5V9.89997H17.05V9.34998Z" fill="#0F022E"/>
<path d="M17.6 9.34998H17.05V9.89997H17.6V9.34998Z" fill="#0F022E"/>
<path d="M0.55 9.90002H0V10.45H0.55V9.90002Z" fill="#0F022E"/>
<path d="M1.1 9.90002H0.550003V10.45H1.1V9.90002Z" fill="#0F022E"/>
<path d="M1.65001 9.90002H1.10001V10.45H1.65001V9.90002Z" fill="#0F022E"/>
<path d="M2.19999 9.90002H1.64999V10.45H2.19999V9.90002Z" fill="#0F022E"/>
<path d="M2.75 9.90002H2.2V10.45H2.75V9.90002Z" fill="#FAFFFF"/>
<path d="M3.3 9.90002H2.75V10.45H3.3V9.90002Z" fill="#FAFFFF"/>
<path d="M3.85 9.90002H3.3V10.45H3.85V9.90002Z" fill="#FAFFFF"/>
<path d="M4.40001 9.90002H3.85001V10.45H4.40001V9.90002Z" fill="#FAFFFF"/>
<path d="M4.94999 9.90002H4.39999V10.45H4.94999V9.90002Z" fill="#FAFFFF"/>
<path d="M5.5 9.90002H4.95V10.45H5.5V9.90002Z" fill="#FAFFFF"/>
<path d="M6.05 9.90002H5.5V10.45H6.05V9.90002Z" fill="#FAFFFF"/>
<path d="M6.6 9.90002H6.05V10.45H6.6V9.90002Z" fill="#FAFFFF"/>
<path d="M7.15001 9.90002H6.60001V10.45H7.15001V9.90002Z" fill="#FAFFFF"/>
<path d="M7.69999 9.90002H7.14999V10.45H7.69999V9.90002Z" fill="#FAFFFF"/>
<path d="M8.25 9.90002H7.7V10.45H8.25V9.90002Z" fill="#FAFFFF"/>
<path d="M8.8 9.90002H8.25V10.45H8.8V9.90002Z" fill="#FAFFFF"/>
<path d="M9.35 9.90002H8.8V10.45H9.35V9.90002Z" fill="#FAFFFF"/>
<path d="M9.90001 9.90002H9.35001V10.45H9.90001V9.90002Z" fill="#FAFFFF"/>
<path d="M10.45 9.90002H9.89999V10.45H10.45V9.90002Z" fill="#FAFFFF"/>
<path d="M11 9.90002H10.45V10.45H11V9.90002Z" fill="#FAFFFF"/>
<path d="M11.55 9.90002H11V10.45H11.55V9.90002Z" fill="#FAFFFF"/>
<path d="M12.1 9.90002H11.55V10.45H12.1V9.90002Z" fill="#FAFFFF"/>
<path d="M12.65 9.90002H12.1V10.45H12.65V9.90002Z" fill="#FAFFFF"/>
<path d="M13.2 9.90002H12.65V10.45H13.2V9.90002Z" fill="#FAFFFF"/>
<path d="M13.75 9.90002H13.2V10.45H13.75V9.90002Z" fill="#FAFFFF"/>
<path d="M14.3 9.90002H13.75V10.45H14.3V9.90002Z" fill="#FAFFFF"/>
<path d="M14.85 9.90002H14.3V10.45H14.85V9.90002Z" fill="#FAFFFF"/>
<path d="M15.4 9.90002H14.85V10.45H15.4V9.90002Z" fill="#FAFFFF"/>
<path d="M15.95 9.90002H15.4V10.45H15.95V9.90002Z" fill="#0F022E"/>
<path d="M16.5 9.90002H15.95V10.45H16.5V9.90002Z" fill="#0F022E"/>
<path d="M17.05 9.90002H16.5V10.45H17.05V9.90002Z" fill="#0F022E"/>
<path d="M17.6 9.90002H17.05V10.45H17.6V9.90002Z" fill="#0F022E"/>
<path d="M0.55 10.45H0V11H0.55V10.45Z" fill="#0F022E"/>
<path d="M1.1 10.45H0.550003V11H1.1V10.45Z" fill="#0F022E"/>
<path d="M1.65001 10.45H1.10001V11H1.65001V10.45Z" fill="#0F022E"/>
<path d="M2.19999 10.45H1.64999V11H2.19999V10.45Z" fill="#0F022E"/>
<path d="M2.75 10.45H2.2V11H2.75V10.45Z" fill="#FAFFFF"/>
<path d="M3.3 10.45H2.75V11H3.3V10.45Z" fill="#FAFFFF"/>
<path d="M3.85 10.45H3.3V11H3.85V10.45Z" fill="#FAFFFF"/>
<path d="M4.40001 10.45H3.85001V11H4.40001V10.45Z" fill="#FAFFFF"/>
<path d="M4.94999 10.45H4.39999V11H4.94999V10.45Z" fill="#FAFFFF"/>
<path d="M5.5 10.45H4.95V11H5.5V10.45Z" fill="#FAFFFF"/>
<path d="M6.05 10.45H5.5V11H6.05V10.45Z" fill="#FAFFFF"/>
<path d="M6.6 10.45H6.05V11H6.6V10.45Z" fill="#FAFFFF"/>
<path d="M7.15001 10.45H6.60001V11H7.15001V10.45Z" fill="#FAFFFF"/>
<path d="M7.69999 10.45H7.14999V11H7.69999V10.45Z" fill="#FAFFFF"/>
<path d="M8.25 10.45H7.7V11H8.25V10.45Z" fill="#FAFFFF"/>
<path d="M8.8 10.45H8.25V11H8.8V10.45Z" fill="#FAFFFF"/>
<path d="M9.35 10.45H8.8V11H9.35V10.45Z" fill="#FAFFFF"/>
<path d="M9.90001 10.45H9.35001V11H9.90001V10.45Z" fill="#FAFFFF"/>
<path d="M10.45 10.45H9.89999V11H10.45V10.45Z" fill="#FAFFFF"/>
<path d="M11 10.45H10.45V11H11V10.45Z" fill="#FAFFFF"/>
<path d="M11.55 10.45H11V11H11.55V10.45Z" fill="#FAFFFF"/>
<path d="M12.1 10.45H11.55V11H12.1V10.45Z" fill="#FAFFFF"/>
<path d="M12.65 10.45H12.1V11H12.65V10.45Z" fill="#FAFFFF"/>
<path d="M13.2 10.45H12.65V11H13.2V10.45Z" fill="#FAFFFF"/>
<path d="M13.75 10.45H13.2V11H13.75V10.45Z" fill="#FAFFFF"/>
<path d="M14.3 10.45H13.75V11H14.3V10.45Z" fill="#FAFFFF"/>
<path d="M14.85 10.45H14.3V11H14.85V10.45Z" fill="#FAFFFF"/>
<path d="M15.4 10.45H14.85V11H15.4V10.45Z" fill="#FAFFFF"/>
<path d="M15.95 10.45H15.4V11H15.95V10.45Z" fill="#0F022E"/>
<path d="M16.5 10.45H15.95V11H16.5V10.45Z" fill="#0F022E"/>
<path d="M17.05 10.45H16.5V11H17.05V10.45Z" fill="#0F022E"/>
<path d="M17.6 10.45H17.05V11H17.6V10.45Z" fill="#0F022E"/>
<path d="M0.55 11H0V11.55H0.55V11Z" fill="#0F022E"/>
<path d="M1.1 11H0.550003V11.55H1.1V11Z" fill="#0F022E"/>
<path d="M1.65001 11H1.10001V11.55H1.65001V11Z" fill="#0F022E"/>
<path d="M2.19999 11H1.64999V11.55H2.19999V11Z" fill="#0F022E"/>
<path d="M2.75 11H2.2V11.55H2.75V11Z" fill="#551E5C"/>
<path d="M3.3 11H2.75V11.55H3.3V11Z" fill="#551E5C"/>
<path d="M3.85 11H3.3V11.55H3.85V11Z" fill="#551E5C"/>
<path d="M4.40001 11H3.85001V11.55H4.40001V11Z" fill="#551E5C"/>
<path d="M4.94999 11H4.39999V11.55H4.94999V11Z" fill="#FAFFFF"/>
<path d="M5.5 11H4.95V11.55H5.5V11Z" fill="#FAFFFF"/>
<path d="M6.05 11H5.5V11.55H6.05V11Z" fill="#FAFFFF"/>
<path d="M6.6 11H6.05V11.55H6.6V11Z" fill="#FAFFFF"/>
<path d="M7.15001 11H6.60001V11.55H7.15001V11Z" fill="#FAFFFF"/>
<path d="M7.69999 11H7.14999V11.55H7.69999V11Z" fill="#FAFFFF"/>
<path d="M8.25 11H7.7V11.55H8.25V11Z" fill="#FAFFFF"/>
<path d="M8.8 11H8.25V11.55H8.8V11Z" fill="#FAFFFF"/>
<path d="M9.35 11H8.8V11.55H9.35V11Z" fill="#FAFFFF"/>
<path d="M9.90001 11H9.35001V11.55H9.90001V11Z" fill="#FAFFFF"/>
<path d="M10.45 11H9.89999V11.55H10.45V11Z" fill="#FAFFFF"/>
<path d="M11 11H10.45V11.55H11V11Z" fill="#FAFFFF"/>
<path d="M11.55 11H11V11.55H11.55V11Z" fill="#7A399D"/>
<path d="M12.1 11H11.55V11.55H12.1V11Z" fill="#7A399D"/>
<path d="M12.65 11H12.1V11.55H12.65V11Z" fill="#7A399D"/>
<path d="M13.2 11H12.65V11.55H13.2V11Z" fill="#7A399D"/>
<path d="M13.75 11H13.2V11.55H13.75V11Z" fill="#C7D4E1"/>
<path d="M14.3 11H13.75V11.55H14.3V11Z" fill="#C7D4E1"/>
<path d="M14.85 11H14.3V11.55H14.85V11Z" fill="#C7D4E1"/>
<path d="M15.4 11H14.85V11.55H15.4V11Z" fill="#C7D4E1"/>
<path d="M15.95 11H15.4V11.55H15.95V11Z" fill="#0F022E"/>
<path d="M16.5 11H15.95V11.55H16.5V11Z" fill="#0F022E"/>
<path d="M17.05 11H16.5V11.55H17.05V11Z" fill="#0F022E"/>
<path d="M17.6 11H17.05V11.55H17.6V11Z" fill="#0F022E"/>
<path d="M0.55 11.55H0V12.1H0.55V11.55Z" fill="#0F022E"/>
<path d="M1.1 11.55H0.550003V12.1H1.1V11.55Z" fill="#0F022E"/>
<path d="M1.65001 11.55H1.10001V12.1H1.65001V11.55Z" fill="#0F022E"/>
<path d="M2.19999 11.55H1.64999V12.1H2.19999V11.55Z" fill="#0F022E"/>
<path d="M2.75 11.55H2.2V12.1H2.75V11.55Z" fill="#551E5C"/>
<path d="M3.3 11.55H2.75V12.1H3.3V11.55Z" fill="#551E5C"/>
<path d="M3.85 11.55H3.3V12.1H3.85V11.55Z" fill="#551E5C"/>
<path d="M4.40001 11.55H3.85001V12.1H4.40001V11.55Z" fill="#551E5C"/>
<path d="M4.94999 11.55H4.39999V12.1H4.94999V11.55Z" fill="#FAFFFF"/>
<path d="M5.5 11.55H4.95V12.1H5.5V11.55Z" fill="#FAFFFF"/>
<path d="M6.05 11.55H5.5V12.1H6.05V11.55Z" fill="#FAFFFF"/>
<path d="M6.6 11.55H6.05V12.1H6.6V11.55Z" fill="#FAFFFF"/>
<path d="M7.15001 11.55H6.60001V12.1H7.15001V11.55Z" fill="#FAFFFF"/>
<path d="M7.69999 11.55H7.14999V12.1H7.69999V11.55Z" fill="#FAFFFF"/>
<path d="M8.25 11.55H7.7V12.1H8.25V11.55Z" fill="#FAFFFF"/>
<path d="M8.8 11.55H8.25V12.1H8.8V11.55Z" fill="#FAFFFF"/>
<path d="M9.35 11.55H8.8V12.1H9.35V11.55Z" fill="#FAFFFF"/>
<path d="M9.90001 11.55H9.35001V12.1H9.90001V11.55Z" fill="#FAFFFF"/>
<path d="M10.45 11.55H9.89999V12.1H10.45V11.55Z" fill="#FAFFFF"/>
<path d="M11 11.55H10.45V12.1H11V11.55Z" fill="#FAFFFF"/>
<path d="M11.55 11.55H11V12.1H11.55V11.55Z" fill="#7A399D"/>
<path d="M12.1 11.55H11.55V12.1H12.1V11.55Z" fill="#7A399D"/>
<path d="M12.65 11.55H12.1V12.1H12.65V11.55Z" fill="#7A399D"/>
<path d="M13.2 11.55H12.65V12.1H13.2V11.55Z" fill="#7A399D"/>
<path d="M13.75 11.55H13.2V12.1H13.75V11.55Z" fill="#C7D4E1"/>
<path d="M14.3 11.55H13.75V12.1H14.3V11.55Z" fill="#C7D4E1"/>
<path d="M14.85 11.55H14.3V12.1H14.85V11.55Z" fill="#C7D4E1"/>
<path d="M15.4 11.55H14.85V12.1H15.4V11.55Z" fill="#C7D4E1"/>
<path d="M15.95 11.55H15.4V12.1H15.95V11.55Z" fill="#0F022E"/>
<path d="M16.5 11.55H15.95V12.1H16.5V11.55Z" fill="#0F022E"/>
<path d="M17.05 11.55H16.5V12.1H17.05V11.55Z" fill="#0F022E"/>
<path d="M17.6 11.55H17.05V12.1H17.6V11.55Z" fill="#0F022E"/>
<path d="M0.55 12.1H0V12.65H0.55V12.1Z" fill="#0F022E"/>
<path d="M1.1 12.1H0.550003V12.65H1.1V12.1Z" fill="#0F022E"/>
<path d="M1.65001 12.1H1.10001V12.65H1.65001V12.1Z" fill="#0F022E"/>
<path d="M2.19999 12.1H1.64999V12.65H2.19999V12.1Z" fill="#0F022E"/>
<path d="M2.75 12.1H2.2V12.65H2.75V12.1Z" fill="#551E5C"/>
<path d="M3.3 12.1H2.75V12.65H3.3V12.1Z" fill="#551E5C"/>
<path d="M3.85 12.1H3.3V12.65H3.85V12.1Z" fill="#551E5C"/>
<path d="M4.40001 12.1H3.85001V12.65H4.40001V12.1Z" fill="#551E5C"/>
<path d="M4.94999 12.1H4.39999V12.65H4.94999V12.1Z" fill="#FAFFFF"/>
<path d="M5.5 12.1H4.95V12.65H5.5V12.1Z" fill="#FAFFFF"/>
<path d="M6.05 12.1H5.5V12.65H6.05V12.1Z" fill="#FAFFFF"/>
<path d="M6.6 12.1H6.05V12.65H6.6V12.1Z" fill="#FAFFFF"/>
<path d="M7.15001 12.1H6.60001V12.65H7.15001V12.1Z" fill="#FAFFFF"/>
<path d="M7.69999 12.1H7.14999V12.65H7.69999V12.1Z" fill="#FAFFFF"/>
<path d="M8.25 12.1H7.7V12.65H8.25V12.1Z" fill="#FAFFFF"/>
<path d="M8.8 12.1H8.25V12.65H8.8V12.1Z" fill="#FAFFFF"/>
<path d="M9.35 12.1H8.8V12.65H9.35V12.1Z" fill="#FAFFFF"/>
<path d="M9.90001 12.1H9.35001V12.65H9.90001V12.1Z" fill="#FAFFFF"/>
<path d="M10.45 12.1H9.89999V12.65H10.45V12.1Z" fill="#FAFFFF"/>
<path d="M11 12.1H10.45V12.65H11V12.1Z" fill="#FAFFFF"/>
<path d="M11.55 12.1H11V12.65H11.55V12.1Z" fill="#7A399D"/>
<path d="M12.1 12.1H11.55V12.65H12.1V12.1Z" fill="#7A399D"/>
<path d="M12.65 12.1H12.1V12.65H12.65V12.1Z" fill="#7A399D"/>
<path d="M13.2 12.1H12.65V12.65H13.2V12.1Z" fill="#7A399D"/>
<path d="M13.75 12.1H13.2V12.65H13.75V12.1Z" fill="#C7D4E1"/>
<path d="M14.3 12.1H13.75V12.65H14.3V12.1Z" fill="#C7D4E1"/>
<path d="M14.85 12.1H14.3V12.65H14.85V12.1Z" fill="#C7D4E1"/>
<path d="M15.4 12.1H14.85V12.65H15.4V12.1Z" fill="#C7D4E1"/>
<path d="M15.95 12.1H15.4V12.65H15.95V12.1Z" fill="#0F022E"/>
<path d="M16.5 12.1H15.95V12.65H16.5V12.1Z" fill="#0F022E"/>
<path d="M17.05 12.1H16.5V12.65H17.05V12.1Z" fill="#0F022E"/>
<path d="M17.6 12.1H17.05V12.65H17.6V12.1Z" fill="#0F022E"/>
<path d="M0.55 12.65H0V13.2H0.55V12.65Z" fill="#0F022E"/>
<path d="M1.1 12.65H0.550003V13.2H1.1V12.65Z" fill="#0F022E"/>
<path d="M1.65001 12.65H1.10001V13.2H1.65001V12.65Z" fill="#0F022E"/>
<path d="M2.19999 12.65H1.64999V13.2H2.19999V12.65Z" fill="#0F022E"/>
<path d="M2.75 12.65H2.2V13.2H2.75V12.65Z" fill="#551E5C"/>
<path d="M3.3 12.65H2.75V13.2H3.3V12.65Z" fill="#551E5C"/>
<path d="M3.85 12.65H3.3V13.2H3.85V12.65Z" fill="#551E5C"/>
<path d="M4.40001 12.65H3.85001V13.2H4.40001V12.65Z" fill="#551E5C"/>
<path d="M4.94999 12.65H4.39999V13.2H4.94999V12.65Z" fill="#FAFFFF"/>
<path d="M5.5 12.65H4.95V13.2H5.5V12.65Z" fill="#FAFFFF"/>
<path d="M6.05 12.65H5.5V13.2H6.05V12.65Z" fill="#FAFFFF"/>
<path d="M6.6 12.65H6.05V13.2H6.6V12.65Z" fill="#FAFFFF"/>
<path d="M7.15001 12.65H6.60001V13.2H7.15001V12.65Z" fill="#FAFFFF"/>
<path d="M7.69999 12.65H7.14999V13.2H7.69999V12.65Z" fill="#FAFFFF"/>
<path d="M8.25 12.65H7.7V13.2H8.25V12.65Z" fill="#FAFFFF"/>
<path d="M8.8 12.65H8.25V13.2H8.8V12.65Z" fill="#FAFFFF"/>
<path d="M9.35 12.65H8.8V13.2H9.35V12.65Z" fill="#FAFFFF"/>
<path d="M9.90001 12.65H9.35001V13.2H9.90001V12.65Z" fill="#FAFFFF"/>
<path d="M10.45 12.65H9.89999V13.2H10.45V12.65Z" fill="#FAFFFF"/>
<path d="M11 12.65H10.45V13.2H11V12.65Z" fill="#FAFFFF"/>
<path d="M11.55 12.65H11V13.2H11.55V12.65Z" fill="#7A399D"/>
<path d="M12.1 12.65H11.55V13.2H12.1V12.65Z" fill="#7A399D"/>
<path d="M12.65 12.65H12.1V13.2H12.65V12.65Z" fill="#7A399D"/>
<path d="M13.2 12.65H12.65V13.2H13.2V12.65Z" fill="#7A399D"/>
<path d="M13.75 12.65H13.2V13.2H13.75V12.65Z" fill="#C7D4E1"/>
<path d="M14.3 12.65H13.75V13.2H14.3V12.65Z" fill="#C7D4E1"/>
<path d="M14.85 12.65H14.3V13.2H14.85V12.65Z" fill="#C7D4E1"/>
<path d="M15.4 12.65H14.85V13.2H15.4V12.65Z" fill="#C7D4E1"/>
<path d="M15.95 12.65H15.4V13.2H15.95V12.65Z" fill="#0F022E"/>
<path d="M16.5 12.65H15.95V13.2H16.5V12.65Z" fill="#0F022E"/>
<path d="M17.05 12.65H16.5V13.2H17.05V12.65Z" fill="#0F022E"/>
<path d="M17.6 12.65H17.05V13.2H17.6V12.65Z" fill="#0F022E"/>
<path d="M0.55 13.2H0V13.75H0.55V13.2Z" fill="#0F022E"/>
<path d="M1.1 13.2H0.550003V13.75H1.1V13.2Z" fill="#0F022E"/>
<path d="M1.65001 13.2H1.10001V13.75H1.65001V13.2Z" fill="#0F022E"/>
<path d="M2.19999 13.2H1.64999V13.75H2.19999V13.2Z" fill="#0F022E"/>
<path d="M2.75 13.2H2.2V13.75H2.75V13.2Z" fill="#928FB8"/>
<path d="M3.3 13.2H2.75V13.75H3.3V13.2Z" fill="#928FB8"/>
<path d="M3.85 13.2H3.3V13.75H3.85V13.2Z" fill="#928FB8"/>
<path d="M4.40001 13.2H3.85001V13.75H4.40001V13.2Z" fill="#928FB8"/>
<path d="M4.94999 13.2H4.39999V13.75H4.94999V13.2Z" fill="#C7D4E1"/>
<path d="M5.5 13.2H4.95V13.75H5.5V13.2Z" fill="#C7D4E1"/>
<path d="M6.05 13.2H5.5V13.75H6.05V13.2Z" fill="#C7D4E1"/>
<path d="M6.6 13.2H6.05V13.75H6.6V13.2Z" fill="#C7D4E1"/>
<path d="M7.15001 13.2H6.60001V13.75H7.15001V13.2Z" fill="#FAFFFF"/>
<path d="M7.69999 13.2H7.14999V13.75H7.69999V13.2Z" fill="#FAFFFF"/>
<path d="M8.25 13.2H7.7V13.75H8.25V13.2Z" fill="#FAFFFF"/>
<path d="M8.8 13.2H8.25V13.75H8.8V13.2Z" fill="#FAFFFF"/>
<path d="M9.35 13.2H8.8V13.75H9.35V13.2Z" fill="#FAFFFF"/>
<path d="M9.90001 13.2H9.35001V13.75H9.90001V13.2Z" fill="#FAFFFF"/>
<path d="M10.45 13.2H9.89999V13.75H10.45V13.2Z" fill="#FAFFFF"/>
<path d="M11 13.2H10.45V13.75H11V13.2Z" fill="#FAFFFF"/>
<path d="M11.55 13.2H11V13.75H11.55V13.2Z" fill="#C7D4E1"/>
<path d="M12.1 13.2H11.55V13.75H12.1V13.2Z" fill="#C7D4E1"/>
<path d="M12.65 13.2H12.1V13.75H12.65V13.2Z" fill="#C7D4E1"/>
<path d="M13.2 13.2H12.65V13.75H13.2V13.2Z" fill="#C7D4E1"/>
<path d="M13.75 13.2H13.2V13.75H13.75V13.2Z" fill="#928FB8"/>
<path d="M14.3 13.2H13.75V13.75H14.3V13.2Z" fill="#928FB8"/>
<path d="M14.85 13.2H14.3V13.75H14.85V13.2Z" fill="#928FB8"/>
<path d="M15.4 13.2H14.85V13.75H15.4V13.2Z" fill="#928FB8"/>
<path d="M15.95 13.2H15.4V13.75H15.95V13.2Z" fill="#0F022E"/>
<path d="M16.5 13.2H15.95V13.75H16.5V13.2Z" fill="#0F022E"/>
<path d="M17.05 13.2H16.5V13.75H17.05V13.2Z" fill="#0F022E"/>
<path d="M17.6 13.2H17.05V13.75H17.6V13.2Z" fill="#0F022E"/>
<path d="M0.55 13.75H0V14.3H0.55V13.75Z" fill="#0F022E"/>
<path d="M1.1 13.75H0.550003V14.3H1.1V13.75Z" fill="#0F022E"/>
<path d="M1.65001 13.75H1.10001V14.3H1.65001V13.75Z" fill="#0F022E"/>
<path d="M2.19999 13.75H1.64999V14.3H2.19999V13.75Z" fill="#0F022E"/>
<path d="M2.75 13.75H2.2V14.3H2.75V13.75Z" fill="#928FB8"/>
<path d="M3.3 13.75H2.75V14.3H3.3V13.75Z" fill="#928FB8"/>
<path d="M3.85 13.75H3.3V14.3H3.85V13.75Z" fill="#928FB8"/>
<path d="M4.40001 13.75H3.85001V14.3H4.40001V13.75Z" fill="#928FB8"/>
<path d="M4.94999 13.75H4.39999V14.3H4.94999V13.75Z" fill="#C7D4E1"/>
<path d="M5.5 13.75H4.95V14.3H5.5V13.75Z" fill="#C7D4E1"/>
<path d="M6.05 13.75H5.5V14.3H6.05V13.75Z" fill="#C7D4E1"/>
<path d="M6.6 13.75H6.05V14.3H6.6V13.75Z" fill="#C7D4E1"/>
<path d="M7.15001 13.75H6.60001V14.3H7.15001V13.75Z" fill="#FAFFFF"/>
<path d="M7.69999 13.75H7.14999V14.3H7.69999V13.75Z" fill="#FAFFFF"/>
<path d="M8.25 13.75H7.7V14.3H8.25V13.75Z" fill="#FAFFFF"/>
<path d="M8.8 13.75H8.25V14.3H8.8V13.75Z" fill="#FAFFFF"/>
<path d="M9.35 13.75H8.8V14.3H9.35V13.75Z" fill="#FAFFFF"/>
<path d="M9.90001 13.75H9.35001V14.3H9.90001V13.75Z" fill="#FAFFFF"/>
<path d="M10.45 13.75H9.89999V14.3H10.45V13.75Z" fill="#FAFFFF"/>
<path d="M11 13.75H10.45V14.3H11V13.75Z" fill="#FAFFFF"/>
<path d="M11.55 13.75H11V14.3H11.55V13.75Z" fill="#C7D4E1"/>
<path d="M12.1 13.75H11.55V14.3H12.1V13.75Z" fill="#C7D4E1"/>
<path d="M12.65 13.75H12.1V14.3H12.65V13.75Z" fill="#C7D4E1"/>
<path d="M13.2 13.75H12.65V14.3H13.2V13.75Z" fill="#C7D4E1"/>
<path d="M13.75 13.75H13.2V14.3H13.75V13.75Z" fill="#928FB8"/>
<path d="M14.3 13.75H13.75V14.3H14.3V13.75Z" fill="#928FB8"/>
<path d="M14.85 13.75H14.3V14.3H14.85V13.75Z" fill="#928FB8"/>
<path d="M15.4 13.75H14.85V14.3H15.4V13.75Z" fill="#928FB8"/>
<path d="M15.95 13.75H15.4V14.3H15.95V13.75Z" fill="#0F022E"/>
<path d="M16.5 13.75H15.95V14.3H16.5V13.75Z" fill="#0F022E"/>
<path d="M17.05 13.75H16.5V14.3H17.05V13.75Z" fill="#0F022E"/>
<path d="M17.6 13.75H17.05V14.3H17.6V13.75Z" fill="#0F022E"/>
<path d="M0.55 14.3H0V14.85H0.55V14.3Z" fill="#0F022E"/>
<path d="M1.1 14.3H0.550003V14.85H1.1V14.3Z" fill="#0F022E"/>
<path d="M1.65001 14.3H1.10001V14.85H1.65001V14.3Z" fill="#0F022E"/>
<path d="M2.19999 14.3H1.64999V14.85H2.19999V14.3Z" fill="#0F022E"/>
<path d="M2.75 14.3H2.2V14.85H2.75V14.3Z" fill="#928FB8"/>
<path d="M3.3 14.3H2.75V14.85H3.3V14.3Z" fill="#928FB8"/>
<path d="M3.85 14.3H3.3V14.85H3.85V14.3Z" fill="#928FB8"/>
<path d="M4.40001 14.3H3.85001V14.85H4.40001V14.3Z" fill="#928FB8"/>
<path d="M4.94999 14.3H4.39999V14.85H4.94999V14.3Z" fill="#C7D4E1"/>
<path d="M5.5 14.3H4.95V14.85H5.5V14.3Z" fill="#C7D4E1"/>
<path d="M6.05 14.3H5.5V14.85H6.05V14.3Z" fill="#C7D4E1"/>
<path d="M6.6 14.3H6.05V14.85H6.6V14.3Z" fill="#C7D4E1"/>
<path d="M7.15001 14.3H6.60001V14.85H7.15001V14.3Z" fill="#FAFFFF"/>
<path d="M7.69999 14.3H7.14999V14.85H7.69999V14.3Z" fill="#FAFFFF"/>
<path d="M8.25 14.3H7.7V14.85H8.25V14.3Z" fill="#FAFFFF"/>
<path d="M8.8 14.3H8.25V14.85H8.8V14.3Z" fill="#FAFFFF"/>
<path d="M9.35 14.3H8.8V14.85H9.35V14.3Z" fill="#FAFFFF"/>
<path d="M9.90001 14.3H9.35001V14.85H9.90001V14.3Z" fill="#FAFFFF"/>
<path d="M10.45 14.3H9.89999V14.85H10.45V14.3Z" fill="#FAFFFF"/>
<path d="M11 14.3H10.45V14.85H11V14.3Z" fill="#FAFFFF"/>
<path d="M11.55 14.3H11V14.85H11.55V14.3Z" fill="#C7D4E1"/>
<path d="M12.1 14.3H11.55V14.85H12.1V14.3Z" fill="#C7D4E1"/>
<path d="M12.65 14.3H12.1V14.85H12.65V14.3Z" fill="#C7D4E1"/>
<path d="M13.2 14.3H12.65V14.85H13.2V14.3Z" fill="#C7D4E1"/>
<path d="M13.75 14.3H13.2V14.85H13.75V14.3Z" fill="#928FB8"/>
<path d="M14.3 14.3H13.75V14.85H14.3V14.3Z" fill="#928FB8"/>
<path d="M14.85 14.3H14.3V14.85H14.85V14.3Z" fill="#928FB8"/>
<path d="M15.4 14.3H14.85V14.85H15.4V14.3Z" fill="#928FB8"/>
<path d="M15.95 14.3H15.4V14.85H15.95V14.3Z" fill="#0F022E"/>
<path d="M16.5 14.3H15.95V14.85H16.5V14.3Z" fill="#0F022E"/>
<path d="M17.05 14.3H16.5V14.85H17.05V14.3Z" fill="#0F022E"/>
<path d="M17.6 14.3H17.05V14.85H17.6V14.3Z" fill="#0F022E"/>
<path d="M0.55 14.85H0V15.4H0.55V14.85Z" fill="#0F022E"/>
<path d="M1.1 14.85H0.550003V15.4H1.1V14.85Z" fill="#0F022E"/>
<path d="M1.65001 14.85H1.10001V15.4H1.65001V14.85Z" fill="#0F022E"/>
<path d="M2.19999 14.85H1.64999V15.4H2.19999V14.85Z" fill="#0F022E"/>
<path d="M2.75 14.85H2.2V15.4H2.75V14.85Z" fill="#928FB8"/>
<path d="M3.3 14.85H2.75V15.4H3.3V14.85Z" fill="#928FB8"/>
<path d="M3.85 14.85H3.3V15.4H3.85V14.85Z" fill="#928FB8"/>
<path d="M4.40001 14.85H3.85001V15.4H4.40001V14.85Z" fill="#928FB8"/>
<path d="M4.94999 14.85H4.39999V15.4H4.94999V14.85Z" fill="#C7D4E1"/>
<path d="M5.5 14.85H4.95V15.4H5.5V14.85Z" fill="#C7D4E1"/>
<path d="M6.05 14.85H5.5V15.4H6.05V14.85Z" fill="#C7D4E1"/>
<path d="M6.6 14.85H6.05V15.4H6.6V14.85Z" fill="#C7D4E1"/>
<path d="M7.15001 14.85H6.60001V15.4H7.15001V14.85Z" fill="#FAFFFF"/>
<path d="M7.69999 14.85H7.14999V15.4H7.69999V14.85Z" fill="#FAFFFF"/>
<path d="M8.25 14.85H7.7V15.4H8.25V14.85Z" fill="#FAFFFF"/>
<path d="M8.8 14.85H8.25V15.4H8.8V14.85Z" fill="#FAFFFF"/>
<path d="M9.35 14.85H8.8V15.4H9.35V14.85Z" fill="#FAFFFF"/>
<path d="M9.90001 14.85H9.35001V15.4H9.90001V14.85Z" fill="#FAFFFF"/>
<path d="M10.45 14.85H9.89999V15.4H10.45V14.85Z" fill="#FAFFFF"/>
<path d="M11 14.85H10.45V15.4H11V14.85Z" fill="#FAFFFF"/>
<path d="M11.55 14.85H11V15.4H11.55V14.85Z" fill="#C7D4E1"/>
<path d="M12.1 14.85H11.55V15.4H12.1V14.85Z" fill="#C7D4E1"/>
<path d="M12.65 14.85H12.1V15.4H12.65V14.85Z" fill="#C7D4E1"/>
<path d="M13.2 14.85H12.65V15.4H13.2V14.85Z" fill="#C7D4E1"/>
<path d="M13.75 14.85H13.2V15.4H13.75V14.85Z" fill="#928FB8"/>
<path d="M14.3 14.85H13.75V15.4H14.3V14.85Z" fill="#928FB8"/>
<path d="M14.85 14.85H14.3V15.4H14.85V14.85Z" fill="#928FB8"/>
<path d="M15.4 14.85H14.85V15.4H15.4V14.85Z" fill="#928FB8"/>
<path d="M15.95 14.85H15.4V15.4H15.95V14.85Z" fill="#0F022E"/>
<path d="M16.5 14.85H15.95V15.4H16.5V14.85Z" fill="#0F022E"/>
<path d="M17.05 14.85H16.5V15.4H17.05V14.85Z" fill="#0F022E"/>
<path d="M17.6 14.85H17.05V15.4H17.6V14.85Z" fill="#0F022E"/>
<path d="M0.55 15.4H0V15.95H0.55V15.4Z" fill="#0F022E"/>
<path d="M1.1 15.4H0.550003V15.95H1.1V15.4Z" fill="#0F022E"/>
<path d="M1.65001 15.4H1.10001V15.95H1.65001V15.4Z" fill="#0F022E"/>
<path d="M2.19999 15.4H1.64999V15.95H2.19999V15.4Z" fill="#0F022E"/>
<path d="M2.75 15.4H2.2V15.95H2.75V15.4Z" fill="#928FB8"/>
<path d="M3.3 15.4H2.75V15.95H3.3V15.4Z" fill="#928FB8"/>
<path d="M3.85 15.4H3.3V15.95H3.85V15.4Z" fill="#928FB8"/>
<path d="M4.40001 15.4H3.85001V15.95H4.40001V15.4Z" fill="#928FB8"/>
<path d="M4.94999 15.4H4.39999V15.95H4.94999V15.4Z" fill="#928FB8"/>
<path d="M5.5 15.4H4.95V15.95H5.5V15.4Z" fill="#928FB8"/>
<path d="M6.05 15.4H5.5V15.95H6.05V15.4Z" fill="#928FB8"/>
<path d="M6.6 15.4H6.05V15.95H6.6V15.4Z" fill="#928FB8"/>
<path d="M7.15001 15.4H6.60001V15.95H7.15001V15.4Z" fill="#7A399D"/>
<path d="M7.69999 15.4H7.14999V15.95H7.69999V15.4Z" fill="#7A399D"/>
<path d="M8.25 15.4H7.7V15.95H8.25V15.4Z" fill="#7A399D"/>
<path d="M8.8 15.4H8.25V15.95H8.8V15.4Z" fill="#7A399D"/>
<path d="M9.35 15.4H8.8V15.95H9.35V15.4Z" fill="#7A399D"/>
<path d="M9.90001 15.4H9.35001V15.95H9.90001V15.4Z" fill="#7A399D"/>
<path d="M10.45 15.4H9.89999V15.95H10.45V15.4Z" fill="#7A399D"/>
<path d="M11 15.4H10.45V15.95H11V15.4Z" fill="#7A399D"/>
<path d="M11.55 15.4H11V15.95H11.55V15.4Z" fill="#928FB8"/>
<path d="M12.1 15.4H11.55V15.95H12.1V15.4Z" fill="#928FB8"/>
<path d="M12.65 15.4H12.1V15.95H12.65V15.4Z" fill="#928FB8"/>
<path d="M13.2 15.4H12.65V15.95H13.2V15.4Z" fill="#928FB8"/>
<path d="M13.75 15.4H13.2V15.95H13.75V15.4Z" fill="#928FB8"/>
<path d="M14.3 15.4H13.75V15.95H14.3V15.4Z" fill="#928FB8"/>
<path d="M14.85 15.4H14.3V15.95H14.85V15.4Z" fill="#928FB8"/>
<path d="M15.4 15.4H14.85V15.95H15.4V15.4Z" fill="#928FB8"/>
<path d="M15.95 15.4H15.4V15.95H15.95V15.4Z" fill="#0F022E"/>
<path d="M16.5 15.4H15.95V15.95H16.5V15.4Z" fill="#0F022E"/>
<path d="M17.05 15.4H16.5V15.95H17.05V15.4Z" fill="#0F022E"/>
<path d="M17.6 15.4H17.05V15.95H17.6V15.4Z" fill="#0F022E"/>
<path d="M0.55 15.95H0V16.5H0.55V15.95Z" fill="#0F022E"/>
<path d="M1.1 15.95H0.550003V16.5H1.1V15.95Z" fill="#0F022E"/>
<path d="M1.65001 15.95H1.10001V16.5H1.65001V15.95Z" fill="#0F022E"/>
<path d="M2.19999 15.95H1.64999V16.5H2.19999V15.95Z" fill="#0F022E"/>
<path d="M2.75 15.95H2.2V16.5H2.75V15.95Z" fill="#928FB8"/>
<path d="M3.3 15.95H2.75V16.5H3.3V15.95Z" fill="#928FB8"/>
<path d="M3.85 15.95H3.3V16.5H3.85V15.95Z" fill="#928FB8"/>
<path d="M4.40001 15.95H3.85001V16.5H4.40001V15.95Z" fill="#928FB8"/>
<path d="M4.94999 15.95H4.39999V16.5H4.94999V15.95Z" fill="#928FB8"/>
<path d="M5.5 15.95H4.95V16.5H5.5V15.95Z" fill="#928FB8"/>
<path d="M6.05 15.95H5.5V16.5H6.05V15.95Z" fill="#928FB8"/>
<path d="M6.6 15.95H6.05V16.5H6.6V15.95Z" fill="#928FB8"/>
<path d="M7.15001 15.95H6.60001V16.5H7.15001V15.95Z" fill="#7A399D"/>
<path d="M7.69999 15.95H7.14999V16.5H7.69999V15.95Z" fill="#7A399D"/>
<path d="M8.25 15.95H7.7V16.5H8.25V15.95Z" fill="#7A399D"/>
<path d="M8.8 15.95H8.25V16.5H8.8V15.95Z" fill="#7A399D"/>
<path d="M9.35 15.95H8.8V16.5H9.35V15.95Z" fill="#7A399D"/>
<path d="M9.90001 15.95H9.35001V16.5H9.90001V15.95Z" fill="#7A399D"/>
<path d="M10.45 15.95H9.89999V16.5H10.45V15.95Z" fill="#7A399D"/>
<path d="M11 15.95H10.45V16.5H11V15.95Z" fill="#7A399D"/>
<path d="M11.55 15.95H11V16.5H11.55V15.95Z" fill="#928FB8"/>
<path d="M12.1 15.95H11.55V16.5H12.1V15.95Z" fill="#928FB8"/>
<path d="M12.65 15.95H12.1V16.5H12.65V15.95Z" fill="#928FB8"/>
<path d="M13.2 15.95H12.65V16.5H13.2V15.95Z" fill="#928FB8"/>
<path d="M13.75 15.95H13.2V16.5H13.75V15.95Z" fill="#928FB8"/>
<path d="M14.3 15.95H13.75V16.5H14.3V15.95Z" fill="#928FB8"/>
<path d="M14.85 15.95H14.3V16.5H14.85V15.95Z" fill="#928FB8"/>
<path d="M15.4 15.95H14.85V16.5H15.4V15.95Z" fill="#928FB8"/>
<path d="M15.95 15.95H15.4V16.5H15.95V15.95Z" fill="#0F022E"/>
<path d="M16.5 15.95H15.95V16.5H16.5V15.95Z" fill="#0F022E"/>
<path d="M17.05 15.95H16.5V16.5H17.05V15.95Z" fill="#0F022E"/>
<path d="M17.6 15.95H17.05V16.5H17.6V15.95Z" fill="#0F022E"/>
<path d="M0.55 16.5H0V17.05H0.55V16.5Z" fill="#0F022E"/>
<path d="M1.1 16.5H0.550003V17.05H1.1V16.5Z" fill="#0F022E"/>
<path d="M1.65001 16.5H1.10001V17.05H1.65001V16.5Z" fill="#0F022E"/>
<path d="M2.19999 16.5H1.64999V17.05H2.19999V16.5Z" fill="#0F022E"/>
<path d="M2.75 16.5H2.2V17.05H2.75V16.5Z" fill="#928FB8"/>
<path d="M3.3 16.5H2.75V17.05H3.3V16.5Z" fill="#928FB8"/>
<path d="M3.85 16.5H3.3V17.05H3.85V16.5Z" fill="#928FB8"/>
<path d="M4.40001 16.5H3.85001V17.05H4.40001V16.5Z" fill="#928FB8"/>
<path d="M4.94999 16.5H4.39999V17.05H4.94999V16.5Z" fill="#928FB8"/>
<path d="M5.5 16.5H4.95V17.05H5.5V16.5Z" fill="#928FB8"/>
<path d="M6.05 16.5H5.5V17.05H6.05V16.5Z" fill="#928FB8"/>
<path d="M6.6 16.5H6.05V17.05H6.6V16.5Z" fill="#928FB8"/>
<path d="M7.15001 16.5H6.60001V17.05H7.15001V16.5Z" fill="#7A399D"/>
<path d="M7.69999 16.5H7.14999V17.05H7.69999V16.5Z" fill="#7A399D"/>
<path d="M8.25 16.5H7.7V17.05H8.25V16.5Z" fill="#7A399D"/>
<path d="M8.8 16.5H8.25V17.05H8.8V16.5Z" fill="#7A399D"/>
<path d="M9.35 16.5H8.8V17.05H9.35V16.5Z" fill="#7A399D"/>
<path d="M9.90001 16.5H9.35001V17.05H9.90001V16.5Z" fill="#7A399D"/>
<path d="M10.45 16.5H9.89999V17.05H10.45V16.5Z" fill="#7A399D"/>
<path d="M11 16.5H10.45V17.05H11V16.5Z" fill="#7A399D"/>
<path d="M11.55 16.5H11V17.05H11.55V16.5Z" fill="#928FB8"/>
<path d="M12.1 16.5H11.55V17.05H12.1V16.5Z" fill="#928FB8"/>
<path d="M12.65 16.5H12.1V17.05H12.65V16.5Z" fill="#928FB8"/>
<path d="M13.2 16.5H12.65V17.05H13.2V16.5Z" fill="#928FB8"/>
<path d="M13.75 16.5H13.2V17.05H13.75V16.5Z" fill="#928FB8"/>
<path d="M14.3 16.5H13.75V17.05H14.3V16.5Z" fill="#928FB8"/>
<path d="M14.85 16.5H14.3V17.05H14.85V16.5Z" fill="#928FB8"/>
<path d="M15.4 16.5H14.85V17.05H15.4V16.5Z" fill="#928FB8"/>
<path d="M15.95 16.5H15.4V17.05H15.95V16.5Z" fill="#0F022E"/>
<path d="M16.5 16.5H15.95V17.05H16.5V16.5Z" fill="#0F022E"/>
<path d="M17.05 16.5H16.5V17.05H17.05V16.5Z" fill="#0F022E"/>
<path d="M17.6 16.5H17.05V17.05H17.6V16.5Z" fill="#0F022E"/>
<path d="M0.55 17.05H0V17.6H0.55V17.05Z" fill="#0F022E"/>
<path d="M1.1 17.05H0.550003V17.6H1.1V17.05Z" fill="#0F022E"/>
<path d="M1.65001 17.05H1.10001V17.6H1.65001V17.05Z" fill="#0F022E"/>
<path d="M2.19999 17.05H1.64999V17.6H2.19999V17.05Z" fill="#0F022E"/>
<path d="M2.75 17.05H2.2V17.6H2.75V17.05Z" fill="#928FB8"/>
<path d="M3.3 17.05H2.75V17.6H3.3V17.05Z" fill="#928FB8"/>
<path d="M3.85 17.05H3.3V17.6H3.85V17.05Z" fill="#928FB8"/>
<path d="M4.40001 17.05H3.85001V17.6H4.40001V17.05Z" fill="#928FB8"/>
<path d="M4.94999 17.05H4.39999V17.6H4.94999V17.05Z" fill="#928FB8"/>
<path d="M5.5 17.05H4.95V17.6H5.5V17.05Z" fill="#928FB8"/>
<path d="M6.05 17.05H5.5V17.6H6.05V17.05Z" fill="#928FB8"/>
<path d="M6.6 17.05H6.05V17.6H6.6V17.05Z" fill="#928FB8"/>
<path d="M7.15001 17.05H6.60001V17.6H7.15001V17.05Z" fill="#7A399D"/>
<path d="M7.69999 17.05H7.14999V17.6H7.69999V17.05Z" fill="#7A399D"/>
<path d="M8.25 17.05H7.7V17.6H8.25V17.05Z" fill="#7A399D"/>
<path d="M8.8 17.05H8.25V17.6H8.8V17.05Z" fill="#7A399D"/>
<path d="M9.35 17.05H8.8V17.6H9.35V17.05Z" fill="#7A399D"/>
<path d="M9.90001 17.05H9.35001V17.6H9.90001V17.05Z" fill="#7A399D"/>
<path d="M10.45 17.05H9.89999V17.6H10.45V17.05Z" fill="#7A399D"/>
<path d="M11 17.05H10.45V17.6H11V17.05Z" fill="#7A399D"/>
<path d="M11.55 17.05H11V17.6H11.55V17.05Z" fill="#928FB8"/>
<path d="M12.1 17.05H11.55V17.6H12.1V17.05Z" fill="#928FB8"/>
<path d="M12.65 17.05H12.1V17.6H12.65V17.05Z" fill="#928FB8"/>
<path d="M13.2 17.05H12.65V17.6H13.2V17.05Z" fill="#928FB8"/>
<path d="M13.75 17.05H13.2V17.6H13.75V17.05Z" fill="#928FB8"/>
<path d="M14.3 17.05H13.75V17.6H14.3V17.05Z" fill="#928FB8"/>
<path d="M14.85 17.05H14.3V17.6H14.85V17.05Z" fill="#928FB8"/>
<path d="M15.4 17.05H14.85V17.6H15.4V17.05Z" fill="#928FB8"/>
<path d="M15.95 17.05H15.4V17.6H15.95V17.05Z" fill="#0F022E"/>
<path d="M16.5 17.05H15.95V17.6H16.5V17.05Z" fill="#0F022E"/>
<path d="M17.05 17.05H16.5V17.6H17.05V17.05Z" fill="#0F022E"/>
<path d="M17.6 17.05H17.05V17.6H17.6V17.05Z" fill="#0F022E"/>
<path d="M2.75 17.6H2.2V18.15H2.75V17.6Z" fill="#0F022E"/>
<path d="M3.3 17.6H2.75V18.15H3.3V17.6Z" fill="#0F022E"/>
<path d="M3.85 17.6H3.3V18.15H3.85V17.6Z" fill="#0F022E"/>
<path d="M4.40001 17.6H3.85001V18.15H4.40001V17.6Z" fill="#0F022E"/>
<path d="M4.94999 17.6H4.39999V18.15H4.94999V17.6Z" fill="#928FB8"/>
<path d="M5.5 17.6H4.95V18.15H5.5V17.6Z" fill="#928FB8"/>
<path d="M6.05 17.6H5.5V18.15H6.05V17.6Z" fill="#928FB8"/>
<path d="M6.6 17.6H6.05V18.15H6.6V17.6Z" fill="#928FB8"/>
<path d="M7.15001 17.6H6.60001V18.15H7.15001V17.6Z" fill="#7A399D"/>
<path d="M7.69999 17.6H7.14999V18.15H7.69999V17.6Z" fill="#7A399D"/>
<path d="M8.25 17.6H7.7V18.15H8.25V17.6Z" fill="#7A399D"/>
<path d="M8.8 17.6H8.25V18.15H8.8V17.6Z" fill="#7A399D"/>
<path d="M9.35 17.6H8.8V18.15H9.35V17.6Z" fill="#7A399D"/>
<path d="M9.90001 17.6H9.35001V18.15H9.90001V17.6Z" fill="#7A399D"/>
<path d="M10.45 17.6H9.89999V18.15H10.45V17.6Z" fill="#7A399D"/>
<path d="M11 17.6H10.45V18.15H11V17.6Z" fill="#7A399D"/>
<path d="M11.55 17.6H11V18.15H11.55V17.6Z" fill="#928FB8"/>
<path d="M12.1 17.6H11.55V18.15H12.1V17.6Z" fill="#928FB8"/>
<path d="M12.65 17.6H12.1V18.15H12.65V17.6Z" fill="#928FB8"/>
<path d="M13.2 17.6H12.65V18.15H13.2V17.6Z" fill="#928FB8"/>
<path d="M13.75 17.6H13.2V18.15H13.75V17.6Z" fill="#0F022E"/>
<path d="M14.3 17.6H13.75V18.15H14.3V17.6Z" fill="#0F022E"/>
<path d="M14.85 17.6H14.3V18.15H14.85V17.6Z" fill="#0F022E"/>
<path d="M15.4 17.6H14.85V18.15H15.4V17.6Z" fill="#0F022E"/>
<path d="M2.75 18.15H2.2V18.7H2.75V18.15Z" fill="#0F022E"/>
<path d="M3.3 18.15H2.75V18.7H3.3V18.15Z" fill="#0F022E"/>
<path d="M3.85 18.15H3.3V18.7H3.85V18.15Z" fill="#0F022E"/>
<path d="M4.40001 18.15H3.85001V18.7H4.40001V18.15Z" fill="#0F022E"/>
<path d="M4.94999 18.15H4.39999V18.7H4.94999V18.15Z" fill="#928FB8"/>
<path d="M5.5 18.15H4.95V18.7H5.5V18.15Z" fill="#928FB8"/>
<path d="M6.05 18.15H5.5V18.7H6.05V18.15Z" fill="#928FB8"/>
<path d="M6.6 18.15H6.05V18.7H6.6V18.15Z" fill="#928FB8"/>
<path d="M7.15001 18.15H6.60001V18.7H7.15001V18.15Z" fill="#7A399D"/>
<path d="M7.69999 18.15H7.14999V18.7H7.69999V18.15Z" fill="#7A399D"/>
<path d="M8.25 18.15H7.7V18.7H8.25V18.15Z" fill="#7A399D"/>
<path d="M8.8 18.15H8.25V18.7H8.8V18.15Z" fill="#7A399D"/>
<path d="M9.35 18.15H8.8V18.7H9.35V18.15Z" fill="#7A399D"/>
<path d="M9.90001 18.15H9.35001V18.7H9.90001V18.15Z" fill="#7A399D"/>
<path d="M10.45 18.15H9.89999V18.7H10.45V18.15Z" fill="#7A399D"/>
<path d="M11 18.15H10.45V18.7H11V18.15Z" fill="#7A399D"/>
<path d="M11.55 18.15H11V18.7H11.55V18.15Z" fill="#928FB8"/>
<path d="M12.1 18.15H11.55V18.7H12.1V18.15Z" fill="#928FB8"/>
<path d="M12.65 18.15H12.1V18.7H12.65V18.15Z" fill="#928FB8"/>
<path d="M13.2 18.15H12.65V18.7H13.2V18.15Z" fill="#928FB8"/>
<path d="M13.75 18.15H13.2V18.7H13.75V18.15Z" fill="#0F022E"/>
<path d="M14.3 18.15H13.75V18.7H14.3V18.15Z" fill="#0F022E"/>
<path d="M14.85 18.15H14.3V18.7H14.85V18.15Z" fill="#0F022E"/>
<path d="M15.4 18.15H14.85V18.7H15.4V18.15Z" fill="#0F022E"/>
<path d="M2.75 18.7H2.2V19.25H2.75V18.7Z" fill="#0F022E"/>
<path d="M3.3 18.7H2.75V19.25H3.3V18.7Z" fill="#0F022E"/>
<path d="M3.85 18.7H3.3V19.25H3.85V18.7Z" fill="#0F022E"/>
<path d="M4.40001 18.7H3.85001V19.25H4.40001V18.7Z" fill="#0F022E"/>
<path d="M4.94999 18.7H4.39999V19.25H4.94999V18.7Z" fill="#928FB8"/>
<path d="M5.5 18.7H4.95V19.25H5.5V18.7Z" fill="#928FB8"/>
<path d="M6.05 18.7H5.5V19.25H6.05V18.7Z" fill="#928FB8"/>
<path d="M6.6 18.7H6.05V19.25H6.6V18.7Z" fill="#928FB8"/>
<path d="M7.15001 18.7H6.60001V19.25H7.15001V18.7Z" fill="#7A399D"/>
<path d="M7.69999 18.7H7.14999V19.25H7.69999V18.7Z" fill="#7A399D"/>
<path d="M8.25 18.7H7.7V19.25H8.25V18.7Z" fill="#7A399D"/>
<path d="M8.8 18.7H8.25V19.25H8.8V18.7Z" fill="#7A399D"/>
<path d="M9.35 18.7H8.8V19.25H9.35V18.7Z" fill="#7A399D"/>
<path d="M9.90001 18.7H9.35001V19.25H9.90001V18.7Z" fill="#7A399D"/>
<path d="M10.45 18.7H9.89999V19.25H10.45V18.7Z" fill="#7A399D"/>
<path d="M11 18.7H10.45V19.25H11V18.7Z" fill="#7A399D"/>
<path d="M11.55 18.7H11V19.25H11.55V18.7Z" fill="#928FB8"/>
<path d="M12.1 18.7H11.55V19.25H12.1V18.7Z" fill="#928FB8"/>
<path d="M12.65 18.7H12.1V19.25H12.65V18.7Z" fill="#928FB8"/>
<path d="M13.2 18.7H12.65V19.25H13.2V18.7Z" fill="#928FB8"/>
<path d="M13.75 18.7H13.2V19.25H13.75V18.7Z" fill="#0F022E"/>
<path d="M14.3 18.7H13.75V19.25H14.3V18.7Z" fill="#0F022E"/>
<path d="M14.85 18.7H14.3V19.25H14.85V18.7Z" fill="#0F022E"/>
<path d="M15.4 18.7H14.85V19.25H15.4V18.7Z" fill="#0F022E"/>
<path d="M2.75 19.25H2.2V19.8H2.75V19.25Z" fill="#0F022E"/>
<path d="M3.3 19.25H2.75V19.8H3.3V19.25Z" fill="#0F022E"/>
<path d="M3.85 19.25H3.3V19.8H3.85V19.25Z" fill="#0F022E"/>
<path d="M4.40001 19.25H3.85001V19.8H4.40001V19.25Z" fill="#0F022E"/>
<path d="M4.94999 19.25H4.39999V19.8H4.94999V19.25Z" fill="#928FB8"/>
<path d="M5.5 19.25H4.95V19.8H5.5V19.25Z" fill="#928FB8"/>
<path d="M6.05 19.25H5.5V19.8H6.05V19.25Z" fill="#928FB8"/>
<path d="M6.6 19.25H6.05V19.8H6.6V19.25Z" fill="#928FB8"/>
<path d="M7.15001 19.25H6.60001V19.8H7.15001V19.25Z" fill="#7A399D"/>
<path d="M7.69999 19.25H7.14999V19.8H7.69999V19.25Z" fill="#7A399D"/>
<path d="M8.25 19.25H7.7V19.8H8.25V19.25Z" fill="#7A399D"/>
<path d="M8.8 19.25H8.25V19.8H8.8V19.25Z" fill="#7A399D"/>
<path d="M9.35 19.25H8.8V19.8H9.35V19.25Z" fill="#7A399D"/>
<path d="M9.90001 19.25H9.35001V19.8H9.90001V19.25Z" fill="#7A399D"/>
<path d="M10.45 19.25H9.89999V19.8H10.45V19.25Z" fill="#7A399D"/>
<path d="M11 19.25H10.45V19.8H11V19.25Z" fill="#7A399D"/>
<path d="M11.55 19.25H11V19.8H11.55V19.25Z" fill="#928FB8"/>
<path d="M12.1 19.25H11.55V19.8H12.1V19.25Z" fill="#928FB8"/>
<path d="M12.65 19.25H12.1V19.8H12.65V19.25Z" fill="#928FB8"/>
<path d="M13.2 19.25H12.65V19.8H13.2V19.25Z" fill="#928FB8"/>
<path d="M13.75 19.25H13.2V19.8H13.75V19.25Z" fill="#0F022E"/>
<path d="M14.3 19.25H13.75V19.8H14.3V19.25Z" fill="#0F022E"/>
<path d="M14.85 19.25H14.3V19.8H14.85V19.25Z" fill="#0F022E"/>
<path d="M15.4 19.25H14.85V19.8H15.4V19.25Z" fill="#0F022E"/>
<path d="M4.94999 19.8H4.39999V20.35H4.94999V19.8Z" fill="#0F022E"/>
<path d="M5.5 19.8H4.95V20.35H5.5V19.8Z" fill="#0F022E"/>
<path d="M6.05 19.8H5.5V20.35H6.05V19.8Z" fill="#0F022E"/>
<path d="M6.6 19.8H6.05V20.35H6.6V19.8Z" fill="#0F022E"/>
<path d="M7.15001 19.8H6.60001V20.35H7.15001V19.8Z" fill="#0F022E"/>
<path d="M7.69999 19.8H7.14999V20.35H7.69999V19.8Z" fill="#0F022E"/>
<path d="M8.25 19.8H7.7V20.35H8.25V19.8Z" fill="#0F022E"/>
<path d="M8.8 19.8H8.25V20.35H8.8V19.8Z" fill="#0F022E"/>
<path d="M9.35 19.8H8.8V20.35H9.35V19.8Z" fill="#0F022E"/>
<path d="M9.90001 19.8H9.35001V20.35H9.90001V19.8Z" fill="#0F022E"/>
<path d="M10.45 19.8H9.89999V20.35H10.45V19.8Z" fill="#0F022E"/>
<path d="M11 19.8H10.45V20.35H11V19.8Z" fill="#0F022E"/>
<path d="M11.55 19.8H11V20.35H11.55V19.8Z" fill="#0F022E"/>
<path d="M12.1 19.8H11.55V20.35H12.1V19.8Z" fill="#0F022E"/>
<path d="M12.65 19.8H12.1V20.35H12.65V19.8Z" fill="#0F022E"/>
<path d="M13.2 19.8H12.65V20.35H13.2V19.8Z" fill="#0F022E"/>
<path d="M4.94999 20.35H4.39999V20.9H4.94999V20.35Z" fill="#0F022E"/>
<path d="M5.5 20.35H4.95V20.9H5.5V20.35Z" fill="#0F022E"/>
<path d="M6.05 20.35H5.5V20.9H6.05V20.35Z" fill="#0F022E"/>
<path d="M6.6 20.35H6.05V20.9H6.6V20.35Z" fill="#0F022E"/>
<path d="M7.15001 20.35H6.60001V20.9H7.15001V20.35Z" fill="#0F022E"/>
<path d="M7.69999 20.35H7.14999V20.9H7.69999V20.35Z" fill="#0F022E"/>
<path d="M8.25 20.35H7.7V20.9H8.25V20.35Z" fill="#0F022E"/>
<path d="M8.8 20.35H8.25V20.9H8.8V20.35Z" fill="#0F022E"/>
<path d="M9.35 20.35H8.8V20.9H9.35V20.35Z" fill="#0F022E"/>
<path d="M9.90001 20.35H9.35001V20.9H9.90001V20.35Z" fill="#0F022E"/>
<path d="M10.45 20.35H9.89999V20.9H10.45V20.35Z" fill="#0F022E"/>
<path d="M11 20.35H10.45V20.9H11V20.35Z" fill="#0F022E"/>
<path d="M11.55 20.35H11V20.9H11.55V20.35Z" fill="#0F022E"/>
<path d="M12.1 20.35H11.55V20.9H12.1V20.35Z" fill="#0F022E"/>
<path d="M12.65 20.35H12.1V20.9H12.65V20.35Z" fill="#0F022E"/>
<path d="M13.2 20.35H12.65V20.9H13.2V20.35Z" fill="#0F022E"/>
<path d="M4.94999 20.9H4.39999V21.45H4.94999V20.9Z" fill="#0F022E"/>
<path d="M5.5 20.9H4.95V21.45H5.5V20.9Z" fill="#0F022E"/>
<path d="M6.05 20.9H5.5V21.45H6.05V20.9Z" fill="#0F022E"/>
<path d="M6.6 20.9H6.05V21.45H6.6V20.9Z" fill="#0F022E"/>
<path d="M7.15001 20.9H6.60001V21.45H7.15001V20.9Z" fill="#0F022E"/>
<path d="M7.69999 20.9H7.14999V21.45H7.69999V20.9Z" fill="#0F022E"/>
<path d="M8.25 20.9H7.7V21.45H8.25V20.9Z" fill="#0F022E"/>
<path d="M8.8 20.9H8.25V21.45H8.8V20.9Z" fill="#0F022E"/>
<path d="M9.35 20.9H8.8V21.45H9.35V20.9Z" fill="#0F022E"/>
<path d="M9.90001 20.9H9.35001V21.45H9.90001V20.9Z" fill="#0F022E"/>
<path d="M10.45 20.9H9.89999V21.45H10.45V20.9Z" fill="#0F022E"/>
<path d="M11 20.9H10.45V21.45H11V20.9Z" fill="#0F022E"/>
<path d="M11.55 20.9H11V21.45H11.55V20.9Z" fill="#0F022E"/>
<path d="M12.1 20.9H11.55V21.45H12.1V20.9Z" fill="#0F022E"/>
<path d="M12.65 20.9H12.1V21.45H12.65V20.9Z" fill="#0F022E"/>
<path d="M13.2 20.9H12.65V21.45H13.2V20.9Z" fill="#0F022E"/>
<path d="M4.94999 21.45H4.39999V22H4.94999V21.45Z" fill="#0F022E"/>
<path d="M5.5 21.45H4.95V22H5.5V21.45Z" fill="#0F022E"/>
<path d="M6.05 21.45H5.5V22H6.05V21.45Z" fill="#0F022E"/>
<path d="M6.6 21.45H6.05V22H6.6V21.45Z" fill="#0F022E"/>
<path d="M7.15001 21.45H6.60001V22H7.15001V21.45Z" fill="#0F022E"/>
<path d="M7.69999 21.45H7.14999V22H7.69999V21.45Z" fill="#0F022E"/>
<path d="M8.25 21.45H7.7V22H8.25V21.45Z" fill="#0F022E"/>
<path d="M8.8 21.45H8.25V22H8.8V21.45Z" fill="#0F022E"/>
<path d="M9.35 21.45H8.8V22H9.35V21.45Z" fill="#0F022E"/>
<path d="M9.90001 21.45H9.35001V22H9.90001V21.45Z" fill="#0F022E"/>
<path d="M10.45 21.45H9.89999V22H10.45V21.45Z" fill="#0F022E"/>
<path d="M11 21.45H10.45V22H11V21.45Z" fill="#0F022E"/>
<path d="M11.55 21.45H11V22H11.55V21.45Z" fill="#0F022E"/>
<path d="M12.1 21.45H11.55V22H12.1V21.45Z" fill="#0F022E"/>
<path d="M12.65 21.45H12.1V22H12.65V21.45Z" fill="#0F022E"/>
<path d="M13.2 21.45H12.65V22H13.2V21.45Z" fill="#0F022E"/>
</g>
<defs>
<clipPath id="clip0">
<rect width="17.6" height="22" fill="white"/>
</clipPath>
</defs>
</svg>
